<svg id="Layer_1" data-name="Layer 1" xmlns="http://www.w3.org/2000/svg" viewBox="0 0 945.61 977.5"><defs><style>.cls-1{fill:#cb7d30;}.cls-2{fill:#fff;}.cls-3{fill:#5c4621;}.cls-4{fill:#cc3524;}.cls-5{fill:#ff9e16;}.cls-6{fill:#ffd923;}.cls-7{fill:#00953a;}.cls-8{fill:#40b4e5;}.cls-9{fill:#c227b9;}</style></defs><title>donut</title><path class="cls-1" d="M324.37,12.35C174.2-1,41.62,109.88,28.28,260.05S125.81,542.8,276,556.17s282.75-97.53,296.12-247.7S474.54,25.73,324.37,12.35ZM299.66,369.26a85,85,0,1,1,85-85h0A85,85,0,0,1,299.66,369.26Z" transform="translate(-27.19 -11.26)"/><path class="cls-2" d="M561.89,238.75c-3.25-6.68-10.74-10.86-14.36-17.8-3.52-6.75-5.29-14.26-6.65-21.7-2.77-15.2-3.39-31.2-10.37-45.3-10.23-20.58-32.23-31.9-51.44-44.44-15.89-10.41-27.34-22.65-35.54-39.34-8.34-17-23.92-27.79-42.21-32.2-21.37-5.16-43.79-2.91-65.64-5.33C310.88,29.88,287.38,17.84,262,19c-30.31,1.36-54.32,23.47-78,39.76C168.65,69.27,151.18,76.13,134,83.3,125,87.05,116,91,108.57,97.36c-25.48,22-22,63.41-42,90.42-6.43,8.67-15.13,15.59-20.72,24.82-9.85,16.28-8.44,37-4.12,55.49S53,304.83,53.18,323.86c.2,18.84-6.13,38.55,1,56,7.92,19.51,29.2,28.28,39.65,45.73,12.62,21.08,16.58,43.72,36.86,60.17,21.87,17.74,51.89,21,77.13,33.52,27.84,13.79,50,36.36,83.11,26.29,11.27-3.42,21.89-8.75,33.14-12.23,20.86-6.44,43.1-6.27,64.73-9.22s44.19-9.94,58.05-26.8c4.8-5.84,8.33-12.6,12.72-18.74,12.84-18,32.28-29.82,49.44-43.73s33.25-32.19,34.58-54.24c1.16-19.24-9.15-39-3-57.23,6-17.74,14.56-22.91,20-40.82a114.41,114.41,0,0,0,3.83-20.31C565.35,254.25,565.52,246.25,561.89,238.75ZM299.66,369.26a85,85,0,1,1,85-85A85,85,0,0,1,299.66,369.26Z" transform="translate(-27.19 -11.26)"/><path class="cls-1" d="M724,443.85c-150.17-13.37-282.73,97.53-296.12,247.7s97.53,282.75,247.7,296.12S958.34,890.14,971.71,740,874.18,457.22,724,443.85ZM699.28,800.76a85,85,0,1,1,85-85h0A85,85,0,0,1,699.28,800.76Z" transform="translate(-27.19 -11.26)"/><path class="cls-3" d="M961.53,670.25c-3.25-6.68-10.74-10.86-14.36-17.8-3.52-6.75-5.29-14.26-6.65-21.7-2.77-15.18-3.39-31.25-10.36-45.31C920,564.87,897.93,553.59,878.71,541c-15.89-10.41-27.34-22.65-35.54-39.34-8.34-17-23.92-27.79-42.21-32.2-21.37-5.16-43.79-2.91-65.64-5.33-24.8-2.76-48.3-14.8-73.67-13.65-30.31,1.37-54.31,23.48-78,39.77-15.32,10.52-32.79,17.38-49.94,24.55-9,3.75-18.08,7.7-25.46,14.06-25.48,22-22,63.41-42,90.42-6.43,8.67-15.13,15.59-20.72,24.82-9.85,16.28-8.44,37-4.12,55.49s11.25,36.74,11.45,55.77c.2,18.84-6.13,38.55,1,56,7.92,19.51,29.2,28.28,39.65,45.73,12.62,21.08,16.58,43.72,36.86,60.17,21.87,17.74,51.89,21,77.13,33.52,27.84,13.79,50,36.36,83.11,26.29,11.27-3.42,21.89-8.75,33.14-12.23,20.86-6.44,43.1-6.27,64.73-9.22s44.19-9.94,58-26.8c4.8-5.84,8.33-12.6,12.72-18.74,12.84-18,32.28-29.82,49.44-43.73s33.25-32.19,34.58-54.24c1.16-19.24-9.15-39-3-57.23,6-17.74,14.56-22.91,20-40.82a114.41,114.41,0,0,0,3.83-20.31C965,685.75,965.16,677.75,961.53,670.25ZM699.3,800.76a85,85,0,1,1,85-85A85,85,0,0,1,699.3,800.76Z" transform="translate(-27.19 -11.26)"/><path class="cls-4" d="M399,450.42a6,6,0,0,1-3.28-7.82h0l12.49-30.54a6,6,0,0,1,11.21,4.28l-.11.27-12.49,30.54A6,6,0,0,1,399,450.42Z" transform="translate(-27.19 -11.26)"/><path class="cls-4" d="M187.18,485.56a6,6,0,0,1,2.85-8h0l29.83-14.11A6,6,0,0,1,225,474.3h0l-29.83,14.11A6,6,0,0,1,187.18,485.56Z" transform="translate(-27.19 -11.26)"/><path class="cls-4" d="M489,244.38a6,6,0,0,1,7.93-3L527,254.9a6,6,0,1,1-4.92,11L492,252.33a6,6,0,0,1-3-7.93Z" transform="translate(-27.19 -11.26)"/><path class="cls-4" d="M333.76,70.66a6,6,0,0,1,5,6.86h0l-5.11,32.6a6,6,0,0,1-11.86-1.86l5.11-32.6a6,6,0,0,1,6.86-5Z" transform="translate(-27.19 -11.26)"/><path class="cls-4" d="M99,377.81a6,6,0,0,1,7.93-3L137,388.33a6,6,0,1,1-4.92,11h0L102,385.74A6,6,0,0,1,99,377.81Z" transform="translate(-27.19 -11.26)"/><path class="cls-4" d="M347,181.3a6,6,0,0,1,3.59-7.69h0l31-11.29a6,6,0,1,1,4.1,11.28h0l-31,11.29A6,6,0,0,1,347,181.3Z" transform="translate(-27.19 -11.26)"/><path class="cls-4" d="M133.8,149.28a6,6,0,0,1-1.42-8.37h0l19.1-26.86a6,6,0,0,1,9.8,6.9l-19.1,26.91a6,6,0,0,1-8.36,1.43Z" transform="translate(-27.19 -11.26)"/><path class="cls-4" d="M198,257.62a6,6,0,0,1-7.71-3.54v0l-11.2-31A6,6,0,1,1,190.37,219l11.2,31A6,6,0,0,1,198,257.62Z" transform="translate(-27.19 -11.26)"/><path class="cls-5" d="M260.77,456.73a6,6,0,0,1-1.25-8.39l19.63-26.53A6,6,0,0,1,288.8,429l-19.63,26.53a6,6,0,0,1-8.39,1.26Z" transform="translate(-27.19 -11.26)"/><path class="cls-5" d="M476.13,432.75a6,6,0,0,1-6.5-5.45l-2.9-32.87a6,6,0,0,1,12-1h0l2.9,32.87a6,6,0,0,1-5.46,6.5Z" transform="translate(-27.19 -11.26)"/><path class="cls-5" d="M418.16,303.92a6,6,0,0,1,.41-8.48h0L443,273.27a6,6,0,0,1,8.06,8.89l-24.44,22.17A6,6,0,0,1,418.16,303.92Z" transform="translate(-27.19 -11.26)"/><path class="cls-5" d="M298.55,174.42a6,6,0,0,1,.41-8.48h0l24.44-22.17a6,6,0,0,1,8.06,8.89L307,174.83A6,6,0,0,1,298.55,174.42Z" transform="translate(-27.19 -11.26)"/><path class="cls-5" d="M142.92,187.7a6,6,0,0,1,2.17-8.2l28.53-16.59a6,6,0,1,1,6,10.37l-28.53,16.59A6,6,0,0,1,142.92,187.7Z" transform="translate(-27.19 -11.26)"/><path class="cls-5" d="M157.28,336.68a6,6,0,0,1-8.48-.38h0L126.52,312a6,6,0,0,1,8.85-8.1l22.28,24.35a6,6,0,0,1-.37,8.48Z" transform="translate(-27.19 -11.26)"/><path class="cls-5" d="M423,123.05a6,6,0,0,1-6.81-5.06l-4.83-32.64a6,6,0,1,1,11.89-1.75l4.83,32.64A6,6,0,0,1,423,123Z" transform="translate(-27.19 -11.26)"/><path class="cls-6" d="M401.16,496.28a6,6,0,0,1-8.22-2.09l-16.86-28.38a6,6,0,1,1,10.32-6.13h0l16.88,28.37a6,6,0,0,1-2.1,8.22Z" transform="translate(-27.19 -11.26)"/><path class="cls-6" d="M478.2,235.61a6,6,0,0,1-8.22-2.09l-16.86-28.37a6,6,0,0,1,10.32-6.1l16.84,28.34A6,6,0,0,1,478.2,235.61Z" transform="translate(-27.19 -11.26)"/><path class="cls-6" d="M368.06,91.45a6,6,0,0,1-.71-8.46h0l21.3-25.21a6,6,0,0,1,9.17,7.74l-21.3,25.21a6,6,0,0,1-8.45.72Z" transform="translate(-27.19 -11.26)"/><path class="cls-6" d="M118.91,208.79a6,6,0,0,1-7.8-3.35h0L98.87,174.8a6,6,0,1,1,11-4.74l.12.29L122.28,201a6,6,0,0,1-3.35,7.79Z" transform="translate(-27.19 -11.26)"/><path class="cls-6" d="M181.49,361.92a6,6,0,0,1-3.15-7.88h0l13-30.32a6,6,0,1,1,11,4.73l-13,30.32A6,6,0,0,1,181.49,361.92Z" transform="translate(-27.19 -11.26)"/><path class="cls-6" d="M181.43,436.11a6,6,0,0,1-7.48,4l-31.59-9.55a6,6,0,0,1,3.47-11.51l31.59,9.55a6,6,0,0,1,4,7.47Z" transform="translate(-27.19 -11.26)"/><path class="cls-7" d="M490.43,343.37a6,6,0,0,1-7.87-3.17l-12.94-30.36a6,6,0,0,1,11-4.71l12.94,30.36A6,6,0,0,1,490.43,343.37Z" transform="translate(-27.19 -11.26)"/><path class="cls-7" d="M339.1,517.82a6,6,0,0,1-7.87-3.17l-13-30.36a6,6,0,0,1,11-4.71l13,30.36a6,6,0,0,1-3.16,7.87Z" transform="translate(-27.19 -11.26)"/><path class="cls-7" d="M400.51,250.13a6,6,0,0,1-2.38-8.14h0L414,213.05a6,6,0,0,1,10.52,5.77l-15.87,28.93A6,6,0,0,1,400.51,250.13Z" transform="translate(-27.19 -11.26)"/><path class="cls-7" d="M217.77,163.32a6,6,0,0,1-2.38-8.14h0l15.89-28.93a6,6,0,0,1,10.5,5.81L225.91,161A6,6,0,0,1,217.77,163.32Z" transform="translate(-27.19 -11.26)"/><path class="cls-7" d="M151.28,281.27a6,6,0,0,1,6.82-5l32.64,4.78A6,6,0,1,1,189,292.92h0l-32.69-4.87A6,6,0,0,1,151.28,281.27Z" transform="translate(-27.19 -11.26)"/><path class="cls-7" d="M237.68,410.81a6,6,0,0,1-8.43.94l-25.78-20.6a6,6,0,0,1,7.49-9.37l25.78,20.6A6,6,0,0,1,237.68,410.81Z" transform="translate(-27.19 -11.26)"/><path class="cls-8" d="M439.58,369.35a6,6,0,0,1-8.3,1.77h0l-27.69-18a6,6,0,1,1,6.53-10.07l27.69,18a6,6,0,0,1,1.77,8.3Z" transform="translate(-27.19 -11.26)"/><path class="cls-8" d="M293,524.34a6,6,0,0,1-8.3,1.77h0l-27.69-18A6,6,0,1,1,263.45,498l.13.09,27.7,18A6,6,0,0,1,293,524.34Z" transform="translate(-27.19 -11.26)"/><path class="cls-8" d="M289,83.49a6,6,0,0,1-8.3,1.77h0L253,67.26a6,6,0,1,1,6.53-10.07l27.69,18a6,6,0,0,1,1.77,8.3Z" transform="translate(-27.19 -11.26)"/><path class="cls-8" d="M138.37,258.48a6,6,0,0,1-8.3,1.77h0l-27.69-18a6,6,0,1,1,6.53-10.07h0l27.69,18a6,6,0,0,1,1.77,8.3Z" transform="translate(-27.19 -11.26)"/><path class="cls-9" d="M337,426.1a6,6,0,0,1-2.84-8h0l14.14-29.79a6,6,0,0,1,10.84,5.16l-14.18,29.8A6,6,0,0,1,337,426.1Z" transform="translate(-27.19 -11.26)"/><path class="cls-9" d="M96.43,321.05a6,6,0,0,1-8.15-2.25L72,290.05a6,6,0,1,1,10.3-6.15l.14.24L98.7,312.86A6,6,0,0,1,96.45,321Z" transform="translate(-27.19 -11.26)"/><path class="cls-9" d="M229.22,108.76a6,6,0,0,1-8.38-1.31L201.4,80.78a6,6,0,0,1,9.7-7.07l19.44,26.67A6,6,0,0,1,229.22,108.76Z" transform="translate(-27.19 -11.26)"/><path class="cls-9" d="M486.11,172.35a6,6,0,0,1-8.39-1.25l-19.64-26.53a6,6,0,0,1,9.64-7.14L487.36,164a6,6,0,0,1-1.24,8.39Z" transform="translate(-27.19 -11.26)"/><path class="cls-9" d="M517.11,325.26a6,6,0,0,1-3.4-7.77h0l12-30.72A6,6,0,0,1,537,290.94l-.08.2-12,30.72A6,6,0,0,1,517.11,325.26Z" transform="translate(-27.19 -11.26)"/><path class="cls-4" d="M798.61,881.92a6,6,0,0,1-3.28-7.82h0l12.49-30.54a6,6,0,0,1,11.11,4.5l-12.49,30.54a6,6,0,0,1-7.8,3.34Z" transform="translate(-27.19 -11.26)"/><path class="cls-4" d="M586.82,917.05a6,6,0,0,1,2.85-8h0l29.83-14.11a6,6,0,1,1,5.13,10.85L594.81,919.9A6,6,0,0,1,586.82,917.05Z" transform="translate(-27.19 -11.26)"/><path class="cls-4" d="M888.61,675.88a6,6,0,0,1,7.93-3l30.1,13.52a6,6,0,0,1-4.92,11l-30.1-13.52a6,6,0,0,1-3-7.93Z" transform="translate(-27.19 -11.26)"/><path class="cls-4" d="M733.4,502.16a6,6,0,0,1,5,6.86h0l-5.12,32.6a6,6,0,1,1-11.86-1.86l5.11-32.6a6,6,0,0,1,6.85-5Z" transform="translate(-27.19 -11.26)"/><path class="cls-4" d="M498.61,809.31a6,6,0,0,1,7.93-3l30.1,13.52a6,6,0,0,1-4.92,11l-30.1-13.52a6,6,0,0,1-3-7.93Z" transform="translate(-27.19 -11.26)"/><path class="cls-4" d="M746.66,612.79a6,6,0,0,1,3.59-7.69h0l31-11.29a6,6,0,0,1,4.1,11.28l-31,11.29a6,6,0,0,1-7.69-3.59Z" transform="translate(-27.19 -11.26)"/><path class="cls-4" d="M533.44,580.78a6,6,0,0,1-1.42-8.37h0l19.1-26.91a6,6,0,0,1,9.91,6.77l-.13.18-19.1,26.91A6,6,0,0,1,533.44,580.78Z" transform="translate(-27.19 -11.26)"/><path class="cls-4" d="M597.65,689.12a6,6,0,0,1-7.68-3.61h0l-11.2-31a6,6,0,1,1,11.29-4.07l11.2,31a6,6,0,0,1-3.61,7.68Z" transform="translate(-27.19 -11.26)"/><path class="cls-5" d="M660.42,888.23a6,6,0,0,1-1.25-8.39l19.63-26.53a6,6,0,1,1,9.65,7.14h0L668.82,887a6,6,0,0,1-8.39,1.26Z" transform="translate(-27.19 -11.26)"/><path class="cls-5" d="M875.78,864.25a6,6,0,0,1-6.5-5.45l-2.9-32.87a6,6,0,1,1,12-1l2.9,32.87a6,6,0,0,1-5.46,6.5Z" transform="translate(-27.19 -11.26)"/><path class="cls-5" d="M817.8,735.41a6,6,0,0,1,.41-8.48h0l24.44-22.17a6,6,0,1,1,8.11,8.85l0,0-24.43,22.18a6,6,0,0,1-8.48-.41Z" transform="translate(-27.19 -11.26)"/><path class="cls-5" d="M698.2,605.92a6,6,0,0,1,.41-8.48h0l24.44-22.17a6,6,0,0,1,8.06,8.89l-24.44,22.17A6,6,0,0,1,698.2,605.92Z" transform="translate(-27.19 -11.26)"/><path class="cls-5" d="M542.57,619.2a6,6,0,0,1,2.17-8.2l28.54-16.59a6,6,0,1,1,6,10.37l-28.53,16.59A6,6,0,0,1,542.57,619.2Z" transform="translate(-27.19 -11.26)"/><path class="cls-5" d="M556.94,768.18a6,6,0,0,1-8.48-.38h0l-22.28-24.35a6,6,0,1,1,8.67-8.29l.18.19,22.25,24.35a6,6,0,0,1-.34,8.48Z" transform="translate(-27.19 -11.26)"/><path class="cls-5" d="M822.68,554.55a6,6,0,0,1-6.81-5.06L811,516.85a6,6,0,0,1,11.81-2.11q0,.16,0,.31l4.83,32.64a6,6,0,0,1-5,6.85Z" transform="translate(-27.19 -11.26)"/><path class="cls-6" d="M800.8,927.77a6,6,0,0,1-8.22-2.09l-16.86-28.37A6,6,0,0,1,786,891.18l16.86,28.37A6,6,0,0,1,800.8,927.77Z" transform="translate(-27.19 -11.26)"/><path class="cls-6" d="M877.84,667.11a6,6,0,0,1-8.22-2.09l-16.86-28.37a6,6,0,0,1,10.32-6.13l16.86,28.37A6,6,0,0,1,877.84,667.11Z" transform="translate(-27.19 -11.26)"/><path class="cls-6" d="M767.71,523a6,6,0,0,1-.71-8.46h0l21.28-25.2a6,6,0,1,1,9.21,7.69l0,0-21.3,25.21A6,6,0,0,1,767.71,523Z" transform="translate(-27.19 -11.26)"/><path class="cls-6" d="M518.55,640.29a6,6,0,0,1-7.8-3.35h0l-12.24-30.65a6,6,0,1,1,11-4.74l.12.29,12.24,30.65A6,6,0,0,1,518.55,640.29Z" transform="translate(-27.19 -11.26)"/><path class="cls-6" d="M581.14,793.42a6,6,0,0,1-3.15-7.88h0l13-30.32A6,6,0,0,1,602,760l-13,30.32A6,6,0,0,1,581.14,793.42Z" transform="translate(-27.19 -11.26)"/><path class="cls-6" d="M581.07,867.61a6,6,0,0,1-7.48,4L542,862.05a6,6,0,1,1,3.47-11.49l31.59,9.55a6,6,0,0,1,4,7.47Z" transform="translate(-27.19 -11.26)"/><path class="cls-7" d="M890.07,774.87a6,6,0,0,1-7.87-3.17l-12.92-30.36a6,6,0,1,1,11-4.71l13,30.36a6,6,0,0,1-3.18,7.87Z" transform="translate(-27.19 -11.26)"/><path class="cls-7" d="M738.74,949.31a6,6,0,0,1-7.87-3.17l-12.94-30.36a6,6,0,1,1,11-4.71l12.94,30.36A6,6,0,0,1,738.74,949.31Z" transform="translate(-27.19 -11.26)"/><path class="cls-7" d="M800.15,681.62a6,6,0,0,1-2.38-8.14h0l15.87-28.94a6,6,0,1,1,10.61,5.6l-.09.17-15.88,29A6,6,0,0,1,800.15,681.62Z" transform="translate(-27.19 -11.26)"/><path class="cls-7" d="M617.42,594.82a6,6,0,0,1-2.38-8.14h0l15.87-28.94a6,6,0,0,1,10.52,5.77l-15.87,28.94A6,6,0,0,1,617.42,594.82Z" transform="translate(-27.19 -11.26)"/><path class="cls-7" d="M550.92,712.77a6,6,0,0,1,6.82-5l32.64,4.87a6,6,0,1,1-1.77,11.87h0L556,719.64a6,6,0,0,1-5.06-6.81Z" transform="translate(-27.19 -11.26)"/><path class="cls-7" d="M637.28,842.31a6,6,0,0,1-8.43.94l-25.78-20.6a6,6,0,0,1,7.49-9.37l25.78,20.6A6,6,0,0,1,637.28,842.31Z" transform="translate(-27.19 -11.26)"/><path class="cls-8" d="M839.22,800.85a6,6,0,0,1-8.3,1.77h0l-27.69-18a6,6,0,0,1,6.53-10.07l27.69,18a6,6,0,0,1,1.77,8.3Z" transform="translate(-27.19 -11.26)"/><path class="cls-8" d="M692.68,955.84a6,6,0,0,1-8.3,1.77h0l-27.69-18a6,6,0,0,1,6.53-10.07l27.69,18a6,6,0,0,1,1.77,8.3Z" transform="translate(-27.19 -11.26)"/><path class="cls-8" d="M688.65,515a6,6,0,0,1-8.3,1.77h0l-27.69-18a6,6,0,0,1,6.53-10.07l27.69,18a6,6,0,0,1,1.77,8.3Z" transform="translate(-27.19 -11.26)"/><path class="cls-8" d="M538,690a6,6,0,0,1-8.3,1.77h0l-27.69-18a6,6,0,1,1,6.53-10.07l27.69,18A6,6,0,0,1,538,690Z" transform="translate(-27.19 -11.26)"/><path class="cls-9" d="M736.63,857.6a6,6,0,0,1-2.84-8h0L748,819.8A6,6,0,1,1,758.81,825h0l-14.18,29.8a6,6,0,0,1-8,2.84Z" transform="translate(-27.19 -11.26)"/><path class="cls-9" d="M496.08,752.57a6,6,0,0,1-8.18-2.26h0l-16.26-28.72a6,6,0,0,1,10.44-5.91l16.26,28.72A6,6,0,0,1,496.08,752.57Z" transform="translate(-27.19 -11.26)"/><path class="cls-9" d="M628.87,540.26a6,6,0,0,1-8.38-1.31l-19.44-26.67a6,6,0,1,1,9.7-7.07l19.44,26.67A6,6,0,0,1,628.87,540.26Z" transform="translate(-27.19 -11.26)"/><path class="cls-9" d="M885.75,603.85a6,6,0,0,1-8.39-1.25l-19.64-26.55a6,6,0,0,1,9.46-7.38l.18.24L887,595.43a6,6,0,0,1-1.22,8.4Z" transform="translate(-27.19 -11.26)"/><path class="cls-9" d="M916.75,756.76a6,6,0,0,1-3.4-7.77h0l12-30.72a6,6,0,0,1,11.17,4.38l-12,30.72A6,6,0,0,1,916.75,756.76Z" transform="translate(-27.19 -11.26)"/></svg>