<?xml version="1.0" encoding="iso-8859-1"?>
<!-- Generator: Adobe Illustrator 23.0.1, SVG Export Plug-In . SVG Version: 6.00 Build 0)  -->
<svg version="1.1" xmlns="http://www.w3.org/2000/svg" xmlns:xlink="http://www.w3.org/1999/xlink" x="0px" y="0px"
	 viewBox="0 0 595.276 841.89" style="enable-background:new 0 0 595.276 841.89;" xml:space="preserve">
<g id="&#x421;&#x43B;&#x43E;&#x439;_2">
	<path style="fill:#EFE39A;" d="M254.667,258.333c-2.098,2.482-6.409,8.289-7.333,16.667c-1.231,11.161,3.926,23.466,14.333,29.667
		c11.652,6.942,24.051,2.756,26.934,1.782c13.596-4.59,20.228-16.274,24.303-23.454c4.107-7.235,5.732-13.433,8.763-24.994
		c2.484-9.475,3.863-17.549,4.667-23.333C302.444,242.556,278.556,250.444,254.667,258.333z"/>
	<path style="fill:#EFE39A;" d="M267.667,211.667c-2.906,1.969-5.29,3.614-7.667,6.667c-9.169,11.78-5.484,28.169-4,33.667
		c4.285-1.685,8.618-3.353,13-5c17.925-6.739,35.506-12.709,52.667-18c2.45-2.494,5.384-6.111,7.667-11
		c5.672-12.149,3.396-23.748,2.333-28c-5.757,3.386-10.62,5.473-13.667,6.667C296.262,205.181,283.702,200.803,267.667,211.667z"/>
	<path style="fill:#EFE39A;" d="M269,203c-0.21-2.984-0.198-7.961,1.667-13.667c0.67-2.051,4.252-12.37,14.667-19
		c4.907-3.124,9.345-4.164,14.333-5.333c9.057-2.123,12.566-0.82,20.333-3c5.897-1.655,10.315-4.214,13-6
		c-0.11,3.431-0.418,8.397-1.333,14.333c-0.913,5.924-1.37,8.886-2.333,10.667c-3.493,6.458-11.713,8.313-26,11.333
		c-10.384,2.195-13.029,1.582-20.772,4.27C276.599,198.673,271.991,201.181,269,203z"/>
	<path style="fill:#EFE39A;" d="M286.667,161.333c4.352-8.332,8.361-15.397,11.667-21c4.717-7.995,8.128-13.221,14-18.333
		c3.921-3.413,8.64-7.421,12.667-6c3.577,1.262,4.797,6.17,5.667,9.667c1.046,4.208,2.39,12.939-2,24.667
		c-1.708,1.256-4.406,3-8,4.333c-6.41,2.378-10.881,1.673-17.333,2.333C299.318,157.411,293.563,158.449,286.667,161.333z"/>
	<path style="fill:#7CCCE8;" d="M490.114,688.536c-19.128-19.23-41.565-22.985-48.447-23.869c7.07-4.09,15.459-10.216,23-19.333
		c24.224-29.287,20.207-65.874,19-74.667c-8.986,2.417-20.043,6.578-31.333,14c-32.275,21.216-43.536,54.009-47,66
		c-8.391-0.289-23.559-1.934-39.667-10.667c-7.245-3.928-30.616-17.086-40-45.333c-11.539-34.734,7.371-64.655,10-68.667
		c-0.778,4-1.556,8-2.333,12c2.36,1.812,24.895,18.868,32.428,12.643c2.761-2.282,2.518-6.865,2.248-10.611
		c-1.255-17.37-13.698-30.173-20.342-36.032c7.268-7.992,16.773-20.135,24.667-36.667c4.176-8.745,13.399-30.231,14.667-59.333
		c0.658-15.095,2.328-53.493-23.333-88.667c-14.925-20.457-33.139-31.659-44.333-37.333c-1.086,4.164-3.948,12.809-11.667,20.667
		c-2.671,2.72-10.462,10.399-23.333,12.667c-3.341,0.589-13.634,2.248-24.667-3.333c-2.75-1.391-11.76-6.113-16.667-16.667
		c-7.366-15.844,0.809-31.292,1.81-33.111c-9.656-0.66-23.285-0.669-39.143,2.444c-5.012,0.984-31.944,6.723-58.667,25.333
		c-41.761,29.084-56.377,72.726-62,90c-19.657,60.39-3.853,113.097,3,132.333c1.983-3.152,4.692-6.873,8.333-10.667
		c4.143-4.316,8.267-7.448,11.667-9.667c-13.97,18.566-21.634,35.753-26,48c-8.32,23.34-15.078,57.954-3,70
		c1.067,1.064,4.048,4.038,8,4c4.856-0.046,8.292-4.613,14.667-13.333c3.292-4.504,5.761-7.896,7.638-10.48
		c2.808-3.866,5.889-8.058,6.555-8.949c3.414-4.566,9.854-11.03,23.14-18.571c-3.819,2.898-8.681,7.309-13,13.667
		c-2.167,3.19-3.784,6.263-5,9c11.829,17.34,24.494,31.081,36.667,42c90.403,81.096,218.59,64.861,253.333,59.333
		c5.891,8.569,15.444,20.079,30,30c29.678,20.228,60.613,20.534,72.667,20C512.778,729.746,509.047,707.571,490.114,688.536z
		 M352.676,417.991c3.294-2.403,7.882-3.987,8.691-2.88c0.615,0.841-1.089,3.05-1.858,4.047c-4.316,5.595-11.825,9.081-13,7.667
		C345.526,425.64,348.808,420.813,352.676,417.991z M344.576,415.11c0.615,0.841-1.089,3.05-1.858,4.047
		c-4.316,5.595-11.825,9.081-13,7.667c-0.984-1.184,2.299-6.011,6.167-8.833C339.179,415.587,343.767,414.004,344.576,415.11z
		 M328.5,378.5c6.719,0,12.167,5.447,12.167,12.167c0,6.719-5.447,12.167-12.167,12.167s-12.167-5.447-12.167-12.167
		C316.333,383.947,321.781,378.5,328.5,378.5z M319.173,417.991c3.294-2.403,7.882-3.987,8.691-2.88
		c0.615,0.841-1.089,3.05-1.858,4.047c-4.316,5.595-11.825,9.081-13,7.667C312.022,425.64,315.305,420.813,319.173,417.991z
		 M250.328,436.935c0.809-0.42,3.664,9.082,13.172,14.398c2.124,1.187,9.08,4.939,17.667,3c7.608-1.718,12.002-6.888,13.333-8.5
		c5.332-6.46,5.523-13.303,6.167-13.167c0.737,0.155,1.267,9.285-3.667,17.667c-1.377,2.34-4.886,8.301-12,11
		c-12.416,4.71-24.147-4.942-25-5.667C251.432,448.389,249.48,437.376,250.328,436.935z M196.167,380.667
		c6.719,0,12.167,5.447,12.167,12.167S202.886,405,196.167,405c-6.719,0-12.167-5.447-12.167-12.167
		S189.447,380.667,196.167,380.667z M175.333,428c-4.316,5.595-11.825,9.081-13,7.667c-0.984-1.184,2.299-6.011,6.167-8.833
		c3.294-2.403,7.882-3.987,8.691-2.88C177.807,424.794,176.103,427.003,175.333,428z M192.046,428
		c-4.316,5.595-11.825,9.081-13,7.667c-0.984-1.184,2.299-6.011,6.167-8.833c3.294-2.403,7.882-3.987,8.691-2.88
		C194.519,424.794,192.815,427.003,192.046,428z M208.837,428c-4.316,5.595-11.825,9.081-13,7.667
		c-0.984-1.184,2.299-6.011,6.167-8.833c3.294-2.403,7.882-3.987,8.691-2.88C211.31,424.794,209.606,427.003,208.837,428z
		 M370.333,664.333c-7.546,5.144-16.695,5.473-25,4.333c-77.448-10.629-103-50.667-103-50.667
		c-22.024-29.327-26.766-64.037-12.184-86.474C242.467,512.573,262.667,508,262.667,508c3.826-0.866,19.001-4.054,34.156,4.638
		c3.348,1.92,14.975,9.169,19.511,22.696c1.675,4.996,1.667,7.588,1.667,20.333c0,0-0.505,15.215,1.667,29.333
		c3.144,20.436,18.441,41.748,36.667,53.333c10.507,6.679,21.317,9.698,21.333,16.333
		C377.678,659.326,372.36,662.952,370.333,664.333z"/>
</g>
<g id="&#x421;&#x43B;&#x43E;&#x439;_3">
	<path style="fill:#7CCCE8;" d="M195.5,384.25c-0.963-1.048-3.922-0.132-5.75,1.25c-2.829,2.139-4.205,6.345-3,7.5
		c1.014,0.972,3.846-0.226,5.5-1.5C194.958,389.414,196.637,385.486,195.5,384.25z"/>
	<path style="fill:#7CCCE8;" d="M329.5,382c-0.934-1.368-5.436-0.901-7.75,1.75c-2.247,2.575-2.218,6.968-0.75,7.75
		c1.813,0.966,5.738-3.622,5.929-3.849C327.532,386.937,330.483,383.44,329.5,382z"/>
	<circle style="fill:#9BE5F9;" cx="196.938" cy="236.688" r="6.438"/>
	<circle style="fill:#9BE5F9;" cx="224.375" cy="206.125" r="9.125"/>
	<circle style="fill:#9BE5F9;" cx="412" cy="489.875" r="8.375"/>
	<circle style="fill:#9BE5F9;" cx="393.875" cy="460.875" r="4.375"/>
	<path style="fill:#EFE39A;" d="M377.999,615.654l-9.461-7.051c-0.437-0.326-1.006-0.416-1.522-0.242l-11.179,3.776
		c-1.3,0.439-2.541-0.8-2.1-2.097l3.79-11.154c0.175-0.515,0.085-1.083-0.241-1.519l-7.061-9.445
		c-0.821-1.098-0.024-2.659,1.348-2.64l11.804,0.158c0.545,0.007,1.059-0.254,1.373-0.698l6.815-9.614
		c0.793-1.118,2.526-0.843,2.934,0.466l3.505,11.251c0.162,0.52,0.569,0.927,1.09,1.088l11.273,3.504
		c1.311,0.407,1.586,2.138,0.465,2.928l-9.638,6.796c-0.445,0.314-0.707,0.826-0.7,1.37l0.152,11.779
		C380.663,615.679,379.099,616.474,377.999,615.654z"/>
	<path style="fill:#9BE5F9;" d="M430.563,433.813c-4.867,0-8.813,3.945-8.813,8.813s3.945,8.813,8.813,8.813
		s8.813-3.945,8.813-8.813S435.43,433.813,430.563,433.813z M433.916,443.625c-1.852,0-3.354-1.502-3.354-3.354
		s1.502-3.354,3.354-3.354s3.354,1.502,3.354,3.354S435.768,443.625,433.916,443.625z"/>
	<path style="fill:#9BE5F9;" d="M108.063,260c-5.005,0-9.063,4.057-9.063,9.063s4.057,9.063,9.063,9.063s9.063-4.057,9.063-9.063
		S113.068,260,108.063,260z M110.43,269.063c-1.986,0-3.596-1.61-3.596-3.596s1.61-3.596,3.596-3.596
		c1.986,0,3.596,1.61,3.596,3.596S112.416,269.063,110.43,269.063z"/>
	<path style="fill:#9BE5F9;" d="M162.157,185.938c-7.007,0-12.688,5.68-12.688,12.688c0,7.007,5.68,12.688,12.688,12.688
		s12.688-5.68,12.688-12.688C174.845,191.618,169.164,185.938,162.157,185.938z M166.886,198.625c-2.612,0-4.729-2.117-4.729-4.729
		c0-2.612,2.117-4.729,4.729-4.729c2.612,0,4.729,2.117,4.729,4.729C171.615,196.508,169.498,198.625,166.886,198.625z"/>
</g>
</svg>
