<?xml version="1.0" encoding="utf-8"?>
<!-- Generator: Adobe Illustrator 21.1.0, SVG Export Plug-In . SVG Version: 6.00 Build 0)  -->
<svg version="1.1" id="Layer_1" xmlns="http://www.w3.org/2000/svg" xmlns:xlink="http://www.w3.org/1999/xlink" x="0px" y="0px"
	 viewBox="0 0 720 420.6" style="enable-background:new 0 0 720 420.6;" xml:space="preserve">
<style type="text/css">
	.st0{fill:#41873F;}
	.st1{fill:#262729;}
	.st2{fill:#2E2A25;}
	.st3{fill:#C3E088;}
	.st4{fill:#CD5599;}
</style>
<title>not-everything-succs</title>
<path class="st0" d="M516.7,145c-3.3-2.2-5.2-5.3-6.5-8.9c-1.6-4.4-2.4-8.9-3.1-13.5c-0.8-6-1.8-12-2.2-18.1
	c-0.5-7.3-0.9-14.7,0.3-22c0.3-1.8-0.1-3.2-1.1-4.7c-9.2-13.9-10.7-28.8-4.8-44.3c1.2-3.1,2.9-5.9,5.3-8.2c4.9-4.8,11.1-4.7,16,0.1
	c3.1,3.1,4.4,7,5.1,11.1c0.1,0.8,0.1,1.6,0.5,2.3c0.7,0.2,1-0.4,1.3-0.7c0.9-0.7,1.7-1.4,2.6-2.1c6.9-5.4,14-3.5,19,0.4
	c3,2.4,5.4,5.4,7.4,8.7c5.2,8.6,8.4,17.9,10.5,27.7c1.8,8.3,2.8,16.7,3.8,25.1c0,0.2,0.1,0.5,0.2,0.7c0.8-0.4,0.8-1.2,1-1.8
	c0.8-1.8,1.6-3.7,2.5-5.5c2.4-4.8,6.1-8.3,10.9-10.8c1.3-0.7,2.5-1.3,3.8-2c0.1-0.9-0.5-1.4-0.8-2c-6.6-12.2-5-26.7,4.1-37.1
	c1.5-1.8,3.3-3.3,5.3-4.5c4.7-2.7,9.7-2.3,13.8,1.2c2,1.7,3.5,3.7,4.6,6.1c3.9,9.1,4.8,18.5,2.1,28.1c-0.7,2.5-1.5,5.1-2.3,7.6
	c-0.2,0.7-0.4,1.3,0.3,1.9c3,2.8,4.7,6.2,5.2,10.2c0,0.2,0.2,0.4,0.4,0.6c0.8-0.4,1.2-1.1,1.7-1.7c5-5.4,10.9-9.6,17.7-12.4
	c1.7-0.7,3.5-1.2,5.3-1.2c2.4,0,4.1,1,5.3,3.1c0.9,1.5,1.3,3.1,1.5,4.8c0.4,3.8,0.2,7.5-0.9,11.2c-2.1,7.3-5.5,14-9.9,20.1
	c-2.7,3.7-6.1,6.3-10.7,7.3c-1.9,0.4-3.8,0.7-5.7,0.5c-1.8-0.1-1.8-0.1-2.4,1.7c-1.5,4.7-3.4,9.1-5.9,13.3
	c-2.2,3.8-4.7,7.4-8.1,10.3c-0.4,0.4-0.7,0.8-1.1,1.3c-0.5,0.1-0.9,0.1-1.4,0.1c-5-0.5-10-1.1-15-1.5c-9.2-0.7-18.4-1.4-27.7-1.9
	c-9.1-0.5-18.2-0.7-27.3-1C530.5,144.4,523.6,144.8,516.7,145z M554.2,80.3c0-0.9-0.2-1.7-0.6-2.5c-1.3-2.8-2.7-5.6-4.1-8.4
	c-0.9-1.8-1.3-1.8-2.8-0.6c-0.4,0.4-0.8,0.8-1.1,1.2c-0.5,0.7-0.6,1.5,0.3,2c1.1,0.5,1.3,1.5,1.5,2.5c0.6,2.7,1.6,5.2,3.2,7.4
	c0.4,0.6,0.8,1.3,1.7,1c0.9-0.2,1.6-0.8,1.8-1.7C554.1,80.9,554.1,80.6,554.2,80.3z M522.3,91.3c2,0,3.3-1.3,2.8-3
	c-0.9-2.9-1.4-5.9-2.3-8.7c-0.5-1.7-1.4-2.1-2.9-1.5c-2.2,0.8-2.8,1.7-2,3.5c0.8,1.9,1.5,3.8,1.8,5.9c0.1,0.9,0.4,1.7,0.7,2.5
	C520.7,91,521.4,91.4,522.3,91.3z M542.1,120.6c-0.1-1.1-0.7-2.3-1-3.5c-0.4-1.6-0.7-3.1-1.1-4.7c-0.7-2.6-2.3-3.1-4.4-1.5
	c-0.3,0.2-0.5,0.4-0.7,0.6c-0.4,0.4-0.6,0.9-0.3,1.5c1.5,2.7,1.9,5.7,2.7,8.7c0.4,1.6,1,1.9,2.7,1.7
	C541.5,123.2,542.2,122.4,542.1,120.6z M525.8,116.6c0-0.5,0-0.8-0.1-1.1c-1.1-3.5-2.3-7-3.4-10.5c0-0.1-0.1-0.3-0.2-0.4
	c-0.6-0.9-1.5-0.9-2.1-0.1c-0.4,0.5-0.5,1-0.5,1.6c0,4,0.7,7.9,1.9,11.8c0.3,0.8,0.5,1.9,1.6,1.9c1.2,0,2-0.9,2.6-1.9
	C525.8,117.5,525.7,117,525.8,116.6z M531.9,54.3c-1.5,0.1-2.5,1-2.2,2.2c0.7,3,1.4,6.1,2.4,9c1.2,3.5,2.5,2.8,4.9,1.6
	c1-0.5,1.3-1.3,0.5-2.1c-1.4-1.5-1.8-3.3-2.1-5.2c-0.3-1.5-0.8-2.9-1.6-4.2C533.3,54.7,532.8,54.2,531.9,54.3z M590,124.2
	C590.1,124.4,590.1,124.4,590,124.2c-1.2-3.5-2.4-7-3.7-10.5c-0.4-1-1.2-1.2-2.1-0.4c-0.7,0.5-1.3,1.2-2,1.7
	c-0.8,0.7-0.9,1.4-0.3,2.3c1.3,1.8,2.2,3.9,3.2,5.9c0.4,0.9,1,1.8,1.6,2.7c0.5,0.7,1.2,0.9,2.1,0.6C589.7,126,590.2,125.5,590,124.2
	z M598.1,105.4c-0.5-1.8-0.4-4-1.6-5.9c-0.6-0.9-1.1-1.9-1.4-3c-0.4-1.4-1.3-1.7-2.8-1.2c-1.7,0.6-2.2,1.3-1.7,2.7
	c1.1,3.4,2.7,6.6,4.8,9.6c0.9,1.3,1.5,1.2,2.2-0.1C597.9,106.8,598.2,106.3,598.1,105.4z M557.5,137.5c0-0.5-0.1-1.2-0.4-1.9
	c-1-2.3-1.7-4.8-2.4-7.2c-0.2-0.7-0.2-1.5-1.1-1.6c-0.2,0-3.6,1.8-3.6,2c0,0.3,0.1,0.6,0.2,0.9c0.9,2.5,1.8,5.1,2.7,7.6
	c0.2,0.6,0.5,1.2,0.9,1.7c0.6,0.8,1.2,1.6,2.3,1.2C557.1,139.8,557.5,138.8,557.5,137.5z M511,54.5c-0.1-0.3-0.1-0.6-0.3-1
	c-1.1-2.7-2.1-5.5-3.3-8.2c-0.6-1.5-1.4-1.8-2.6-1.3c-1.7,0.8-2.5,2.3-1.6,3.6c1,1.5,1.5,3.1,2.1,4.8c0.3,0.9,0.7,1.8,1.1,2.6
	c0.4,0.8,1,1.3,1.8,1.5C509.6,56.8,511,55.8,511,54.5z M557.4,114c-0.9-2.3-0.9-5-1.5-7.7c-0.1-0.5-0.3-0.9-0.4-1.4
	c-0.6-1.7-1-1.8-2.7-1.3c-1.8,0.6-2,0.9-1.6,2.5c0.5,1.9,1,3.9,1.7,5.8c0.4,1.2,0.2,2.5,0.6,3.8c0.2,0.6,0.3,1.3,1.2,1.3
	C556,117.1,557.4,115.8,557.4,114z M510.8,30.9c0.3,1.6,0.6,3.2,1,4.8c0.4,1.7,0.8,3.4,1.9,4.9c1,1.3,2.2,1.7,3.3,1
	c1-0.6,1.3-1.7,0.5-3.2c-1.1-2.1-1.8-4.4-2.4-6.7c-0.3-1-0.6-2-1.4-2.7c-0.9-0.9-1.9-0.7-2.5,0.4C511,29.8,511,30.3,510.8,30.9z
	 M605,136.4c0.1-0.8-0.3-1.5-0.5-2.3c-1.1-2.7-2.7-5.2-3.6-8.1c-0.4-1.2-1.2-1.3-2.3-0.5c-1.4,1-1.7,2.4-1,4.3
	c1.1,2.7,3.1,4.8,4.3,7.4c0.1,0.1,0.2,0.3,0.3,0.4c0.6,0.5,1.2,0.8,2,0.5C604.9,137.8,605,137.1,605,136.4z M542.6,94.1
	c0-0.2,0-0.5-0.1-0.7c-1-3.4-2.7-6.6-3.3-10.2c-0.2-1.2-1.6-1.3-2.4-0.3c-0.6,0.8-0.5,1.7-0.4,2.5c0.1,1.1,0.3,2.2,0.6,3.3
	c0.5,2.2,0.9,4.4,2,6.4c0.5,0.9,1.1,1.7,2.2,1.3C542.2,96.1,542.6,95.2,542.6,94.1z M612.6,95.6c-0.2-0.5-0.4-1.2-0.7-2
	c-1-2.3-2.1-4.5-3.2-6.7c-0.3-0.5-0.4-1.4-1.2-1.4c-0.8,0-1.1,0.8-1.4,1.5c-0.3,0.5-0.2,1.1-0.2,1.6c-0.2,3.5,1.6,6.3,3.4,9
	c1,1.6,1.9,1.5,2.8-0.2C612.4,97,612.7,96.5,612.6,95.6z M636.6,106.4c0-0.2,0-0.3-0.1-0.5c-0.8-3-1.7-6-2.3-9
	c-0.2-1-0.8-1.1-1.6-0.9c-1.1,0.3-1.7,1.1-1.8,2.3c-0.2,1.9,0,3.6,0.8,5.4c0.5,1.2,1.1,2.5,1.2,3.9c0,0.7,0.2,1.5,1,1.8
	c0.9,0.3,1.5-0.3,2-0.9C636.3,107.9,636.6,107.2,636.6,106.4z M607.5,108.9c-0.1,3,1.9,8,3.8,9.9c0.9,0.9,1.5,0.8,2.3-0.3
	c0.8-1.4,0.7-2.7,0-4.1c-1.1-2.4-2.3-4.8-3.4-7.1c-0.2-0.4-0.3-1-0.9-1c-0.7-0.1-1,0.5-1.2,0.9C607.8,107.9,607.7,108.6,607.5,108.9
	z M608.9,52.2c-0.3-1.8-0.7-4.1-1.4-6.3c-0.2-0.7-0.5-1.2-1.3-1.1c-1.2,0.1-2.4-0.3-3.5,0.4c-0.2,0.1-0.2,0.6-0.2,0.9
	c0,0.6,0.1,1.3,0.5,1.8c1,1.4,1.5,3,1.7,4.7c0.1,0.6,0.4,1.2,0.7,1.8c0.7,1.3,2.2,1.4,3.1,0.1C608.8,53.9,608.9,53.2,608.9,52.2z
	 M642.6,86.4c-1.4,0.8-2.9,1.3-3,3c0,2.7,0.6,5.4,2.2,7.7c0.4,0.5,0.8,0.7,1.4,0.2c0.8-0.7,1.8-1.3,1.5-2.5
	C644.1,92.1,643.8,89.2,642.6,86.4z M595.4,57.7c0,0.9,0,1.3,0,1.7c0.1,1.4,0.3,2.7,0.8,3.9c0.6,1.2,1.5,1.7,2.5,1.4
	c1-0.3,1.6-1.1,1.5-2.4c-0.3-2.5-1.1-5-2.1-7.3c-0.2-0.5-0.6-1-1.2-1c-0.7,0-1,0.6-1.3,1.3C595.2,56.2,595.4,57.2,595.4,57.7z"/>
<path class="st1" d="M298.3,125.2c1.4,0.1,2.9,0.2,4.3,0.7c3.4,1.1,5.1,3.8,4.5,7.4c-0.3,1.8-1,3.5-1.9,5.2
	c-6.8,13.5-11,27.9-13.7,42.7c-2.2,12.1-3.3,24.4-3.9,36.7c-0.4,8.9-0.8,17.9-1,26.8c0,1.5-0.2,3-0.3,4.5c-0.4,3.4-1.8,5-5.2,5.7
	c-5.8,1.2-11.6,2.1-17.5,2.8c-9.9,1.1-19.8,1.4-29.7,1.1c-7.8-0.2-15.5-1.1-23.1-2.2c-3-0.4-6-0.8-9-1.2c-0.9-0.1-1.7-0.3-2.6-0.6
	c-5.7-1.6-7.8-4.9-6.8-10.7c0.7-3.6,1.5-7.2,2.2-10.8c2.6-12.6,4-25.2,4.4-38.1c0.6-20.3-1.4-40.4-6.2-60.1
	c-0.3-1.4-0.8-2.8-0.7-4.2c0.1-2,1-2.9,2.9-3.1c1.1-0.1,2.2-0.1,3.3-0.1c0.8,0,1.6,0.1,2.4,0.1c8,0.4,16,0.5,24,0.5
	c13.7,0.1,27.4-0.1,41-0.7C276.6,127.1,287.5,126.2,298.3,125.2z M291.9,168c-0.2,0-0.3,0-0.4,0c-1.3,1.4-2.7,2.7-4,4.1
	c-16.5,17.2-32.9,34.5-48.6,52.5c-6.9,7.9-13.6,16-20.1,24.2c-0.9,1.2-1.9,2.4-2.5,3.8c-0.7,1.8-0.2,3,1.5,3.7c1,0.4,2,0.6,3,0.6
	c7.5,0.3,15,0.7,22.5,1c1.4,0.1,2.9,0,4.3,0.2c2.6,0.3,4.7-0.5,6.3-2.7c2.6-3.5,5.3-7.1,7.8-10.6c4.3-5.9,8.5-11.8,13.8-16.9
	c1.8-1.7,3.7-3.3,5.5-5c2.5-2.4,4-5.3,4.7-8.7c1.1-5.3,1.2-10.8,1.8-16.2c1-8.6,2.2-17.1,3.7-25.6C291.5,170.9,292,169.5,291.9,168z
	 M200,215.2c0.6,0,0.8-0.6,1.2-0.9c2.4-2.6,4.5-5.4,6.5-8.3c2.3-3.4,4.7-6.7,7.4-9.8c13.6-15.7,28.6-29.9,44.3-43.5
	c8.3-7.2,16.6-14.3,24.9-21.5c0.6-0.5,1.5-0.9,1.7-1.9c-0.8,0-1.6,0-2.3,0c-14.3,0.3-28.6,0.8-42.9,0.9c-2.9,0-5.3,1.1-7.1,3.4
	c-0.9,1.1-1.7,2.1-2.6,3.2c-8.9,10.7-17.9,21.3-26.9,32c-2.1,2.5-3.3,5.3-3.4,8.5c-0.1,6.2-0.3,12.5-0.5,18.7
	c-0.1,3.4-0.3,6.7-0.3,10.1C199.9,209,200,212.1,200,215.2z"/>
<path class="st2" d="M86.4,70.7c6.7-10.5,11.5-21.9,17.3-32.8c0.1-0.1,0.3-0.1,0.7-0.4c0.6,6.9,0.8,13.7,2,20.8
	c0.9-1.5,1.7-2.7,2.5-3.9c1.4-2.3,1.9-2.4,4.6-1.6c0.6-0.5,0.9-1.3,1.2-2c2.8-5.3,6.4-10.1,9.6-15.2c1.3-2,2.8-3.8,5.3-5.4
	c1.7,11.1,3.3,21.8,5,32.4c0.9,0,1-0.7,1.4-1.2c3.2-3.6,6.9-6.7,10.3-10c1-0.9,1.3-0.9,2,0.3c1.7,3.2,3.1,6.7,4,10.3
	c3.1,12.6,1.5,24.7-4.4,36.3c-0.3,0.6-0.6,1.1-0.9,1.7c0,0,0,0.1,0.1,0.4c3.1-2,6.2-3.9,8.9-6.2c2.2-1.9,4.4-3.9,6.6-5.9
	c0.3-0.3,0.6-0.6,0.9-0.8c1.1-0.7,1.8-0.4,1.8,0.9c0.2,5-0.6,9.9-2.3,14.6c-2.3,6.3-6,11.6-10.9,16.1c-2.5,2.3-5.1,4.6-7.4,7.1
	c-1.8,2-3.3,4.1-4.3,6.6c-0.1,0.3-0.2,0.6,0.1,1.2c0.9,0,2,0,3.1,0c1.1,0,2.2,0.1,3.3,0.4c2.4,0.6,3.6,2.1,3.4,4.5
	c-0.2,3.3-0.7,6.7-1.1,10c-1.4,10.9-2.9,21.7-4.6,32.5c-2.2,14-4.7,27.9-7.5,41.7c-1.2,5.7-2.1,11.5-3,17.2
	c-0.8,5.2-3.7,8.2-8.8,9.4c-8,1.8-16,3.2-24.1,3.7c-12,0.7-24,0.4-36,0.2c-3.4-0.1-6.7,0-10.1-0.1c-4.8-0.1-6.9-1.9-7.6-6.5
	c-0.9-6-0.8-12.1-0.8-18.2c0-19.3-0.5-38.5-0.9-57.8c-0.2-10.3-0.4-20.6-0.5-30.9c0-1.4-0.4-2.1-1.7-2.7c-3.5-1.6-6.2-4.2-8.5-7.2
	c-5.2-6.8-8.1-14.6-9.6-23C24.8,103,25,98.7,24,94.5c-0.4-1.8-0.9-3.6-0.8-5.4c0-0.7,0-1.5,0.2-2.1c0.5-2,1.7-2.8,3.7-2.1
	c3.1,1,5.7,2.8,7.9,5.2c0.5,0.6,1,1.1,1.5,1.7c0.6-0.5,0.4-1,0.4-1.5c-0.3-12.7,0.2-25.4,1.5-38.1c0.3-3.3,0.7-6.7,1.1-10
	c0.1-0.5,0.1-1,0.2-1.4c0.4-1.6,0.9-1.9,2.3-0.9c2.6,1.8,4.7,4.1,6.4,6.7c3.4,5.1,5.4,10.7,6.4,16.7c1.1,6.7,1.9,13.4,2.9,20.2
	c0.2,1.6,0.7,3.3,1.1,5.1c0.9-1.2,0.9-2.4,1.4-3.5c5.5-12.8,10.7-25.8,18.7-37.5c2.2-3.2,4.5-6.4,6.8-9.6c0.5-0.7,0.9-1.9,2.1-1.6
	c1.2,0.3,1.4,1.5,1.5,2.5c0.5,3.8,0.7,7.6,0.4,11.5c-0.6,6.8-2,13.4-3.8,20c-0.3,0.5-0.6,1.1-0.4,1.8C86,71.7,86.3,71.2,86.4,70.7z
	 M48.7,231.1c0,2.2-0.1,4.5,0,6.7c0.2,3.3,0.6,6.7,1.7,9.9c1,3,1.9,3.7,5,3.9c0.8,0,1.6,0,2.4,0.1c8.4,0.9,16.7,0.9,25.1,0.3
	c1.1-0.1,1.7-0.4,1.9-1.6c0.3-1.8,0.7-3.6,1.1-5.4c1-4.6,4.2-6.9,8.5-7.7c4.7-0.9,8.4,1.3,9.9,5.9c0.5,1.5,0.7,3.1,0.9,4.7
	c0.2,2.2,0.6,2.7,2.8,2.6c1.8,0,3.5-0.2,5.3-0.4c4.3-0.5,8.5-1.4,12.4-3.3c2.7-1.4,4.6-3.4,5.4-6.4c0.6-2.3,1.2-4.6,1.8-7
	c1.1-4.4,2.2-8.8,3.4-13.2c0.6-2.3,0.1-4.3-1.5-6c-0.7-0.8-1.5-1.5-2.1-2.3c-5.8-7.2-7.3-15.2-3.9-23.8c2.1-5.4,5.9-9.3,12.3-9.4
	c1.2,0,1.6-0.8,1.7-1.9c0.4-3,0.7-6,1.1-9c0.4-2.8,0.3-3.1-2.2-4.3c-2.5-1.3-4.6-2.9-6.2-5.2c-4.2-5.9-5.2-12.6-4.4-19.6
	c0.3-2.6,0-3.1-2.6-3.3c-3.6-0.2-7.2-0.4-10.8-0.7c-3.7-0.3-3.7-0.4-5.1,2.9c-3.6,8.3-12.7,13.7-21.7,12.7c-5.5-0.6-9.1-3.7-10.5-9
	c-0.4-1.5-0.6-3-0.8-4.5c-0.3-1.8-0.5-2-2.3-1.9c-0.6,0-1.3,0.1-1.9,0.2c-3.7,0.5-7.4,1.1-11.2,1.4c-2.4,0.2-4.7,0.8-7.1,1.3
	c-1.2,0.3-1.8,1-1.7,2.2c0,0.6,0,1.1,0,1.7c0.2,3.9-0.9,7.4-3.4,10.4c-0.5,0.6-0.8,1.2-1.3,1.7c-2.4,2.7-3.1,5.8-2.9,9.3
	c0.3,4.9,0.5,9.9,0.5,14.9c0,3.2,0.6,6,3.8,7.5c0.4,0.2,0.8,0.6,1.1,0.9c3,2.4,4.8,5.6,5.5,9.3c0.7,3.6,0.7,7.3,0.4,11
	c-0.2,3.2-1.4,6.1-3.4,8.6c-1.4,1.8-3.1,3.4-5.2,4.5c-0.9,0.5-1.4,1.1-1.5,2.2C48.5,225.1,48.7,228.1,48.7,231.1z M41.8,41.8
	c-0.8,0.9-0.8,1.8-1,2.6c-1.2,7.1-1.6,14.3-1.9,21.5c-0.2,6.1-0.4,12.1-0.6,18.2c-0.1,2.2-0.3,4.3-0.2,6.5c0.3,4.8,1.8,9.2,3.8,13.5
	c4.2,9.2,8.3,18.3,12.5,27.5c1.8,4,0.9,3.5,5.7,3.3c1.7-0.1,1.9-0.4,1.9-2c0-0.4,0-0.8-0.1-1.2c-0.7-5.5-1.4-10.9-2.1-16.4
	c-1-8.2-2.1-16.3-3.1-24.5c-1-8.2-2-16.3-3.9-24.4c-1.5-6.7-3.9-13.2-7-19.3C45,45.1,44,43.1,41.8,41.8z M127.5,129.3
	c0,0.5,0.1,1.2,0.1,1.9c-0.1,1.2,0.4,1.8,1.6,1.8c0.9,0,1.7,0.1,2.6,0.3c2.8,0.5,2.8,0.5,2.8-2.4c0-2.7-0.2-5.4,0.1-8.1
	c1.4-9.6,6-17.8,10.8-25.9c0.6-1,1.4-2,1.8-3.1c3.1-7.9,5.6-16,4.4-24.7c-0.7-4.8-2.3-9.3-3.7-13.9c-0.4-1.3-1.1-1.4-2.2-0.7
	c-0.3,0.2-0.6,0.5-0.9,0.8c-1.9,2.8-4.4,5-6.5,7.7c-2.2,2.8-3.8,5.9-4.2,9.5c-0.5,4.6-1.9,9.1-3.5,13.4c-1.3,3.5-2.6,7.1-3.5,10.7
	c-1.5,5.9-1.2,11.9-0.3,17.9c0.6,4.1,1,8.2,0.4,12.4C127.5,127.7,127.5,128.4,127.5,129.3z M128.7,33.4c-0.7,0.1-1,0.6-1.3,1.1
	c-2.2,4.2-5.1,7.9-7.9,11.7c-2,2.8-3.5,5.9-4.6,9.2c-0.6,1.8-0.7,3.6-0.4,5.4c0.6,3.1,1.3,6.3,2,9.4c0.9,3.6,1.9,7.3,2.1,11
	c0.5,6.9-0.8,13.5-3.1,20c-2.1,5.7-3,11.4-1.6,17.4c1,4.1,2.1,8.2,2.9,12.4c0,0.2,0.1,0.5,0.2,0.7c0.5,1.2,1.5,1,2.5,0.9
	c1.1-0.1,0.9-0.9,0.8-1.6c-0.1-0.9-0.2-1.8-0.1-2.6c1.2-7.6,1.2-15.4,3.6-22.9c0.2-0.6,0.2-1.3,0.3-1.9c0.3-3.8,1.1-7.5,2.4-10.9
	c1.7-4.2,3.1-8.5,4.4-12.9c2.2-7.5,2.9-15,0.7-22.7c-1.8-6.5-2.8-13.1-2.4-19.9C129.3,35.9,129.5,34.5,128.7,33.4z M110.8,55.2
	c-0.4,0.7-0.7,1.2-1,1.8c-3,6.3-5.8,12.6-8.3,19.1c-4.7,12-6.4,24.3-3.9,37.1c1.1,5.8,3,11.2,5.6,16.5c0.9,1.8,2.3,2.6,4.2,2.7
	c1.6,0.1,2.4-0.5,2.6-2.1c0.1-0.9,0-1.9,0-2.9c0.1-9.7,0.6-19.3,4.3-28.5c2-4.9,2.5-10.1,2.3-15.3c-0.2-8.5-2.3-16.7-4.1-25
	C112.2,57.4,111.9,56.2,110.8,55.2z M63.7,126.4c0.8-0.1,1-0.5,1.1-0.9c2-5,3.8-10,3.5-15.5c-0.2-3.4,0.3-6.7,1.1-10
	c2.6-10.7,7.9-20.4,11.4-30.7c0.2-0.7,0.7-1.1,1.4-1c1,0.2,1.4-0.3,1.7-1.2C85.7,62,87,57,87,51.6c0-3.3,0.1-6.6,0.2-9.8
	c0-0.7,0.1-1.4-0.4-2c-0.6-0.1-0.7,0.3-1,0.7c-3.7,5.8-7.4,11.6-10.9,17.5c-2.8,4.6-5.7,9.3-7.5,14.4c-2.2,6.1-4.2,12.4-6.5,18.5
	c-1.2,3.3-1.4,6.7-0.9,10.1c0.6,4.2,1.1,8.4,1.7,12.6C62.3,117.8,62.7,122.1,63.7,126.4z M103,45.7c-0.7,0-0.9,0.4-1,0.9
	c-2.6,6-6.1,11.4-9.4,17c-1.8,3-3.5,6.1-4.8,9.4c-1.1,2.8-1.2,5.6-0.2,8.4c1.4,3.8,2,7.7,1.8,11.8c-0.2,7.3-1.5,14.4-4.2,21.3
	c-0.6,1.5-1.2,3-1.2,4.6c0.1,4.2,0.7,8.3,1.4,12.4c0.2,1.4,1,1.7,2.5,1.6c1.3-0.1,1.6-0.9,1.5-2c-0.1-1.3,0.3-2.5,0.8-3.7
	c0.5-1.3,1-2.7,1.5-4c0.8-2.3,1.5-4.5,3.3-6.3c0.5-0.5,0.7-1.2,0.5-2c-0.8-2.6-0.9-5.4-1-8.1c-0.3-6.5-0.8-12.9,0.7-19.3
	c1.5-6.3,3.2-12.5,6.5-18.2c0.9-1.6,1.5-3.3,1.8-5.2c0.7-6,0-12-0.1-17.9C103.3,46,103.1,45.8,103,45.7z M82.5,72.5
	c-0.2,0.3-0.4,0.5-0.5,0.7c-2.6,6.9-5.6,13.6-8,20.5c-2.4,7.1-4.1,14.3-3.7,21.8c0.2,5,1,10,1.9,15c0.1,0.7,0.4,1.4,0.8,2
	c0.9,1.5,2.5,1.5,3.5,0.1c0.3-0.4,0.6-0.9,0.8-1.5c2.2-7.7,5.4-15.2,7.8-22.9c2.8-8.9,3.5-17.8,1-26.9
	C85.2,78.3,84.2,75.4,82.5,72.5z M49.8,136.9c0.1,0,0.5,0,0.8-0.1c2.8-0.5,3.5-2.2,2.1-4.6c-0.7-1.2-1.5-2.5-2-3.8
	c-3.8-8.6-7.7-17.2-11.5-25.8c-1.7-4-3.4-7.9-6.7-10.9c-1-0.9-1.7-2.2-2.6-3.1c-0.7-0.7-1.7-1.2-2.8-0.7c-1.1,0.5-0.9,1.6-0.9,2.5
	c0.5,6.3,0.8,12.6,1.9,18.8c1.1,6.1,3.1,11.9,6.6,17.1c2.7,4,6.1,7.1,10.4,9.4C46.4,136.3,47.9,136.9,49.8,136.9z M163.4,91
	c-0.9-0.1-1.3,0.3-1.6,0.6c-4.2,4.4-9.1,8-13.7,12c-3.5,3.1-6.4,6.7-8.6,10.9c-2.8,5.6-3.4,11.6-3,17.7c0,0.4,0,1,0.7,1.1
	c0.5,0,0.6-0.5,0.8-0.8c1.5-3.7,4.1-6.7,6.9-9.4c3.3-3.3,6.6-6.5,9.9-9.8c1.8-1.7,3.5-3.6,4.5-5.8C161.7,102.3,162.5,96.7,163.4,91z
	 M96.4,118.9c-0.8,0.7-1.3,1.6-1.8,2.5c-1.2,2.6-2,5.3-2.8,8.1c-0.1,0.4-0.1,0.8-0.1,1.2c-0.1,1.1,0.5,1.6,1.5,1.7
	c2.1,0.1,4.3,0.1,6.4-0.4c1.5-0.3,2-1.2,1.3-2.6c-1.4-2.7-2.4-5.5-3.5-8.3C97.2,120.3,97.2,119.5,96.4,118.9z M124.7,110.6
	c-0.8,1.5-0.8,3.1-1,4.7c-0.7,5.2-1.3,10.4-1.7,15.7c-0.1,1.8,0.2,2.1,1.9,2c0.9,0,1.5-0.4,1.8-1.3c0.3-1,0.4-2,0.4-3.1
	c-0.1-2.9-0.2-5.7-0.4-8.6C125.6,116.9,125.6,113.7,124.7,110.6z M68.2,121.9c-0.4,0.1-0.6,0.6-0.6,0.9c-0.4,2.3-1.3,4.4-2.6,6.4
	c-0.2,0.3-0.3,0.6-0.4,0.9c-0.7,4.3-1.2,4.9,3.7,4.1c2.2-0.3,2.3-0.6,1.9-2.8c-0.6-2.8-1.3-5.6-1.4-8.5
	C68.8,122.5,68.6,122.1,68.2,121.9z M82.5,123c-1.4,2.8-1.8,5.5-2.7,8c-0.1,0.3-0.2,0.6-0.3,0.9c-0.1,0.3-0.1,0.6,0.2,0.8
	c1.2,0.8,3.9-0.1,3.8-1.4C83.4,128.7,83.7,125.9,82.5,123z M113,122c-0.2,0-0.4,0-0.7,0c-0.9,2.4-1.1,5-0.5,7.5
	c0.1,0.7,0.4,1.4,0.9,1.9c0.3,0.4,0.7,0.6,1.3,0.5c0.6-0.2,0.6-0.7,0.5-1.1C114,127.9,113.5,124.9,113,122z"/>
<path class="st1" d="M486.5,358c2.1-1.2,3.2-2.6,4.3-4c3.1-4.2,5.2-9,6.3-14.1c0.2-0.9,0.3-1.7,0.5-2.6c0.2-0.8,0.7-1.3,1.5-1.2
	c0.8,0.1,1.3,0.6,1.3,1.5c0,0.7,0,1.4-0.1,2.2c-0.3,2.2-0.6,4.4-0.9,6.6c-0.6,3.9-2.2,7.3-4.5,10.5c-2,2.8-4.1,5.6-7,7.5
	c-0.8,0.5-0.9,1.2-0.9,2c0,2.6,0,5.3,0,7.9c0,11-3.9,20.3-12,27.7c-2.3,2.1-4.9,3.8-7.8,5c-7,2.8-12.7-0.5-13.9-8
	c-0.6-4.3,0.2-8.3,2.2-12.1c2-3.9,4.8-7.2,7.8-10.3c4.1-4.2,8.6-7.9,13-11.7c1.7-1.4,3.3-3,5.1-4.4c1-0.8,1.3-1.7,1.2-2.9
	c-0.2-1.5-0.1-3-0.4-4.5c-0.9-0.1-1.2,0.6-1.7,1c-1.2,1-2.5,2-4,2.7c-5,2.5-9.4,1.1-12.4-4c-1.4,0.7-2.7,1.5-4.2,2.2
	c-1.9,0.8-3.9,1.3-6.1,0.7c-2.7-0.8-4.1-2.7-4.1-5.5c0-1.4,0.4-2.7,0.7-4c1.4-5.2,1.5-10.4,1.2-15.7c0-0.8-0.2-1.6-0.6-2.3
	c-0.4-1-1.1-1.6-2.3-1.3c-1,0.2-1.4,1-1.4,1.9c0,1.4,0,2.9,0,4.3c0,3.2,0,6.4,0,9.6c0,1.3-0.2,2.6-0.5,3.8c-0.3,1-0.8,1.9-1.6,2.6
	c-2.1,1.8-4.6,1.1-5.3-1.6c-0.1-0.3,0.1-0.7-0.3-0.9c-3.6,1.2-7.4,2.9-10.7-1c-0.8,0-1.1,0.8-1.7,1.2c-2.2,1.7-4.6,2.9-7.4,3.1
	c-2.9,0.2-4.4-0.9-5-3.7c-0.7-3.1-1-6.2-0.7-9.3c0.1-1.1,0.2-2.2,0.2-3.4c0-0.8-0.2-1.6-1.1-2c-0.9-0.4-1.7-0.1-2.4,0.5
	c-0.6,0.5-1.1,1.2-1.5,1.9c-2,3.4-3.3,7.1-3.7,11c-0.1,1.1-0.2,2.2-0.5,3.3c-0.3,1.3-0.8,2.4-2.1,3c-1.6,0.7-2.8,0.2-3.3-1.5
	c-0.2-0.8-0.1-1.6,0-2.4c0.2-2.6,0.4-5.3,0.7-8c-1.3,0.5-1.7,1.6-2.3,2.4c-1.3,1.7-2.4,3.6-4,5c-1.6,1.4-3.3,2.5-5.5,2.6
	c-3.5,0.2-4-0.1-5.6-3.2c-0.7,0.5-0.9,1.3-1.3,2c-2.5,4.4-5.1,8.7-8.1,12.7c-1.3,1.6-1.7,3.3-1.8,5.3c-0.4,5.9-0.9,11.8-1.9,17.6
	c-0.8,4.6-2.1,9-4.7,13c-2.4,3.7-5.4,6.5-9.9,7.4c-4.9,1-9.1-1-11.3-5.5c-1.5-3-2-6.2-1.8-9.6c0.7-11.2,5.8-19.8,15.2-25.8
	c2.4-1.5,4.7-3.1,7.1-4.5c2.7-1.5,3.6-3.6,2.9-6.6c-0.8-0.3-1.3,0.4-1.9,0.7c-2.2,1-4.4,2-6.8,2.2c-4.1,0.3-6.2-1.4-6.8-5.4
	c-0.3-1.8-0.2-3.7-0.2-5.5c0-3.9-0.1-7.8,0.3-11.7c0.1-1.3,0-2.7,0-4.1c0-1.5,0.1-2.9,0.8-4.2c0.8-1.4,1.9-2.1,3.5-2
	c1.3,0.1,2.1,1,2.6,2.7c0.4,1.5,0.4,3,0.1,4.5c-0.6,4.3-0.8,8.6-0.6,12.9c0.1,1,0.2,2.1,0.5,3.1c0.2,0.6,0.6,1.2,1.3,1.2
	c0.7,0,1.1-0.5,1.5-1.1c1.6-2.7,2.5-5.5,2.8-8.6c0.1-1.4,0.4-2.9,0.9-4.2c0.7-1.9,2-3.1,4-3.3c1.7-0.2,2.6,0.5,2.8,2.1
	c0.1,0.9,0.1,1.8,0.1,2.6c0,6.2,0,12.5,0,18.7c0.6,0.2,0.8-0.5,1.1-0.9c2.6-3.2,5.2-6.5,7.9-9.7c0.6-0.8,0.9-1.6,0.9-2.6
	c-0.1-4.8-0.2-9.6-0.2-14.4c0-1.7-0.2-2-1.9-1.9c-1.6,0.1-3.2,0.3-4.8,0c-2.3-0.5-3.1-2.2-1.9-4.3c0.7-1.2,1.9-2,3.3-2.1
	c1.4-0.1,2.7-0.1,4.1-0.1c2.7,0,3-0.3,3.4-2.9c0.3-2.6,0.7-5.2,1.1-7.8c0.3-2.1,0.9-2.6,2.4-2.7c1.7,0,2.8,0.9,3.3,2.6
	c0.4,1.5,0.1,3-0.2,4.5c-0.4,2-0.9,4.1-0.9,6.2c1.4,0.4,2.9,0,4.3,0.1c1.5,0.1,3,0.4,4.3,1.3c1.4,1.1,1.3,2.6-0.3,3.4
	c-0.6,0.3-1.4,0.4-2.1,0.5c-1.7,0.2-3.3,0.5-5,0.7c-1.2,0.1-1.9,0.7-2,2c-0.1,5.1-0.1,10.2,1,15.3c0.5,2,1.5,2.3,3,0.8
	c4.7-4.7,7.5-10.3,8.4-16.8c0.6-3.9,0.6-7.8,0.9-11.7c0.3-2.9,0.7-5.7,1.8-8.4c0.6-1.4,1.2-2.7,3-2.6c1.6,0,2.9,1.3,3.3,3.3
	c0.2,1.2,0.2,2.4,0.1,3.6c-0.5,4.7-0.9,9.4-1.4,14.1c0,0.3,0,0.6,0,1c0.3-0.1,0.6-0.2,0.8-0.3c3.5-1.9,6.9-0.9,8.7,2.6
	c1.2,2.3,1.4,4.7,1.2,7.2c-0.2,2.6-0.4,5.1-0.3,7.7c0,0.9,0,1.8,0.4,2.6c0.6,1.2,1.1,1.4,2.3,0.9c0.7-0.3,1.4-0.7,2.1-1.1
	c2.1-1.1,3.4-2.5,3.1-5.3c-0.4-4.4,0.1-8.8,0.4-13.2c0.1-1.9,0.5-3.7,2.3-4.8c2.5-1.6,4.9-0.4,5,2.6c0.1,2.7-0.5,5.2-0.8,7.9
	c-0.1,1.6-0.4,3.2-0.6,4.8c-0.2,1.4,0,2.7,0.4,4c0.5,1.6,1.7,2.7,3.4,3.1c2.1,0.4,2.8-0.2,2.6-2.3c-0.4-4.6-0.1-9.1,0.5-13.6
	c0.1-0.9,0.3-1.7,0.8-2.5c0.8-1.2,1.7-1.5,2.8-0.7c0.9,0.6,1.4,0.3,2.1-0.1c2.1-1.1,4.2-2,6.6-1.9c2.5,0.1,4.2,1.3,5,3.7
	c0.6,1.9,0.5,3.8,0.3,5.7c-0.5,4.1-1,8.3-1.5,12.4c-0.2,1.2-0.1,2.4,0.3,3.6c0.6,2,2.5,2.5,4.2,1.2c1.4-1.2,1.6-2.9,1.6-4.6
	c0-2.6-0.1-5.1,0.4-7.6c0.6-3,1.7-5.6,4.1-7.7c4.2-3.7,9.3-3.4,12.8,1c2.2,2.7,3.4,6,4.2,9.3c1.4,5.5,1.9,11.2,2,16.9
	C486.5,355.8,486.5,356.6,486.5,358z M483.3,367.1c-4.2,3-7.6,6.2-10.8,9.4c-2.9,3-5.6,6.1-7.8,9.7c-2.2,3.7-3.6,7.6-4.1,11.9
	c-0.3,2.7,1.4,3.9,3.9,3c1.4-0.5,2.7-1.4,3.8-2.5c3.4-3.2,6.9-6.5,9.7-10.3c2.2-3,3.6-6.3,4.2-10.1
	C482.7,374.8,482.8,371.2,483.3,367.1z M366.4,365.5c-4.5,3.6-8.4,7.1-12.1,10.8c-3.6,3.6-5.3,8.1-5.8,13.1c-0.2,1.7,0,3.4,0.8,4.9
	c1.2,2.2,2.7,2.8,5,1.7c5.2-2.4,8.8-6.2,10.1-12C365.6,378.1,366,372,366.4,365.5z M480.8,346.2c-0.4-3.1-1.2-6.6-1.7-10.1
	c-0.3-2.1-3.1-3.3-5.1-2.6c-2.2,0.8-3.8,2.4-4.8,4.4c-1.4,2.9-2.3,6-2.6,9.2c-0.1,1,0,1.9,0.2,2.9c0.6,2.8,3.1,4.9,5.8,4.9
	c3,0,7.8-4.2,8.2-7.2C480.7,347.3,480.7,346.9,480.8,346.2z"/>
<path class="st3" d="M516.7,145c6.9-0.2,13.9-0.6,20.8-0.4c9.1,0.3,18.2,0.5,27.3,1c9.2,0.5,18.5,1.2,27.7,1.9c5,0.4,10,1,15,1.5
	c0.5,0.1,0.9,0,1.4-0.1c2.4,0.9,5,0.9,7.5,1.3c5,0.9,9.9,1.8,14.8,3.1c2.3,0.6,2.8,1.6,1.9,3.9c-0.7,1.8-1.7,3.5-2.6,5.1
	c-7.3,13.2-13.9,26.7-19.8,40.5c-6.8,15.9-12.9,32.2-18.5,48.6c0,0.1,0,0.2-0.1,0.2c-2.4,5-2.8,6.2-8.7,6.1c-20-0.5-40-0.2-60-0.4
	c-4.2,0-6-1.4-7.1-5.4c-4-14-8-27.9-12-41.9c-3-10.4-6.1-20.8-9.2-31.2c-1.3-4.4-3-8.8-4.5-13.2c-1.4-4.3-2.1-8.7-2.2-13.2
	c-0.1-2.9,0.9-4,3.7-4.8c2.3-0.7,4.7-0.8,7.1-1.1C504.9,146,510.8,145.1,516.7,145z M559.3,233c0,7,0,12.8,0.5,18.6
	c0.1,1.8,0.1,1.8,2,1.8c2.1,0,4.2,0,6.2,0c2.3,0,2.3,0,2.7-2.3c1.2-6.1,2.3-12.2,3.5-18.3c2.2-11.5,4.3-23,6.5-34.5
	c1.7-8.8,3.2-17.6,4.6-26.4c0.8-4.7,1.6-9.4,3.5-13.9c0.6-1.5,1.3-3.1,1.3-4.8c0.1-1.8,0-1.9-1.8-2.1c-2.9-0.2-5.8-0.2-8.6-0.6
	c-3-0.4-6-0.3-9.1-0.7c-3.5-0.4-7-0.5-10.5-0.6c-1.8-0.1-1.9,0.1-1.7,1.9c0.1,0.9,0.1,1.7,0,2.6c-0.4,3.6-0.8,7.1-1,10.7
	c-0.3,5,0.2,9.9,0.5,14.8c0.2,2.9,0.3,5.9,0.4,8.8c0.4,7.8,1,15.6,1.3,23.4C560,219.2,559,226.7,559.3,233z M522.4,148.8
	c-4.9,0.8-10.3,0.2-15.7,0.9c-2.8,0.4-3.1,0.7-2.1,3.3c0.2,0.5,0.4,1,0.7,1.5c1.8,2.7,2.7,5.8,3.6,8.8c2.2,8.4,3.7,17,6,25.4
	c3.7,13.8,7.4,27.6,11.1,41.4c2,7.3,4,14.6,6,21.9c0.6,2,0.7,2.1,2.6,1.7c1.5-0.3,3-0.2,4.5-0.3c1.2,0,2.4,0,3.6-0.1
	c0.8,0,1.1-0.4,1-1.2c-0.7-5.5-1.4-11.1-2.1-16.6c-0.7-4.9-1.4-9.8-2-14.7c-0.7-4.9-1.3-9.8-2.1-14.7c-1.3-8.3-2.7-16.7-4.1-25
	c-1.6-9.3-3.3-18.7-5-28c-0.3-1.4-0.1-3.2-1.1-4.1C526.3,148.2,524.5,149,522.4,148.8z M537.5,148.9c-1.6,0-3.2,0-4.8,0
	c-2.1,0-2.1,0-1.8,2.1c0.1,0.6,0.1,1.1,0.2,1.7c2.6,13.5,5.2,27.1,7.2,40.7c1.2,7.7,2.6,15.4,3.6,23.1c1.4,10.1,2.9,20.2,4,30.3
	c0.2,1.8,0.6,3.6,0.8,5.4c0.1,0.9,0.6,1.2,1.4,1.2c2.5,0,5,0,7.4,0c0.9,0,1.4-0.3,1.3-1.3c0-0.6,0-1.1,0-1.7c0-8-0.6-16-0.3-24
	c0.1-3.9,0.3-7.8,0-11.7c-0.4-6.3-0.6-12.6-1-18.9c-0.5-7.5-0.7-15-1.1-22.5c-0.1-1.6-0.1-3.2-0.3-4.8c-0.2-2-0.2-4.1,0.1-6.2
	c0.6-3.8,1.3-7.6,1.2-11.4c-0.1-1.7-0.1-1.8-1.7-1.8C548.4,149.4,543,148.9,537.5,148.9z M613.9,154.4c-0.7-0.5-1.2-0.6-1.8-0.7
	c-5.1-0.5-10.2-0.8-15.2-1.4c-3.1-0.4-3.1-0.2-4,2.9c-4.7,17.1-7.7,34.5-10.9,51.9c-2.3,12.4-4.8,24.7-7.2,37.1
	c-0.5,2.4-1,4.8-1.5,7.3c-0.3,1.8-0.1,2,1.8,2.1c1.1,0,2.2,0,3.4,0c1.8,0.1,1.8,0.1,2.4-1.6c2.3-7.2,4.5-14.5,6.8-21.7
	c2-6.4,3.9-12.8,6-19.2c2.1-6.8,4-13.6,7.2-20c2.1-4.2,3.2-8.6,4.2-13.2c1.3-5.7,2.5-11.4,5.1-16.7
	C611.3,158.8,612.8,156.7,613.9,154.4z M526.7,254.4c2.6,0.1,2.6,0.1,1.9-2.4c-1.9-7-3.9-14-5.6-21c-5-19.9-10.8-39.6-15.1-59.6
	c-1.1-5-2.2-10-4.8-14.5c-1-1.7-1.6-3.5-1.8-5.4c-0.1-0.8-0.5-1.2-1.2-1.1c-2.3,0.3-4.6,0.5-6.8,1.1c-0.6,0.2-1,0.6-1.1,1.3
	c-0.3,2.6-0.2,5,0.4,7.6c1.4,5.8,3.5,11.3,5.3,16.9c3.1,9.2,5.4,18.5,8.2,27.8c4.3,14.6,8.4,29.1,12.6,43.7c1.3,4.5,2.2,5.3,6.9,5.7
	C525.9,254.5,526.3,254.4,526.7,254.4z M618.5,154.4c-0.9-0.1-0.9-0.1-1.7,0.9c-3.2,4.1-5.2,8.8-6.6,13.7
	c-2.3,8.2-4.2,16.6-7.3,24.5c-1.8,4.7-3.7,9.4-5.2,14.2c-4.6,14.4-9,28.8-13.5,43.2c-0.2,0.8-1,1.8-0.1,2.4c0.7,0.5,1.7-0.2,2.5-0.6
	c0.8-0.4,1.3-1.1,1.7-1.9c1.3-2.6,2.6-5.1,3.6-7.8c2.1-5.6,3.6-11.4,5.7-17c7.2-18.6,15-36.8,23.9-54.6c2.1-4.3,4.3-8.6,6.4-12.9
	c0.7-1.5,0.6-1.8-0.9-2.2C624.3,155.5,621.4,154.7,618.5,154.4z"/>
<path class="st1" d="M43.9,315c0.1-1.3,0.3-2.9,0-4.5c-0.1-0.4-0.1-0.8-0.6-1c-0.6-0.2-0.9,0.2-1.2,0.6c-0.4,0.8-0.8,1.6-1.2,2.4
	c-2.7,6.4-4.2,13.2-5.4,20.1c-1.5,8.7-2.4,17.4-4.8,25.9c-0.5,1.6-0.9,3.2-1.5,4.8c-0.7,1.8-1.7,3.3-3.9,3.4c-2,0.1-4.3-1.5-5-3.5
	c-0.6-1.7-0.8-3.6-0.8-5.4c0.2-10.6,2.3-20.8,5.6-30.8c3.1-9.7,7.2-19,11.5-28.2c0.8-1.7,1.7-3.2,2.9-4.7c1-1.4,2.4-2.3,4-2.8
	c3.2-1,5.8,0.4,6.8,3.5c0.6,2.2,1.1,4.5,1.5,6.8c2,10.3,3.4,20.6,4,31.1c0.3,4.6,0.6,9.3,2.2,13.7c0.2,0.7,0.4,1.4,0.9,1.9
	c0.8,1,1.7,0.9,2.1-0.4c0.6-1.8,1-3.7,1.3-5.6c1-5.3,1.5-10.8,2-16.2c0.8-8,1.3-16.1,2.4-24.1c0.4-2.6,1.1-5.1,2.2-7.6
	c0.7-1.4,1.4-2.8,3.2-2.7c2,0,3.3,1.1,4.2,2.7c0.7,1.5,0.9,3.1,0.9,4.7c0,3.5-0.6,7-1.1,10.5c-1.3,9.9-2.7,19.8-4.2,29.7
	c-0.7,4.7-1.5,9.5-2.4,14.2c-0.3,1.7-0.8,3.2-1.6,4.8c-0.7,1.4-1.6,2.6-2.9,3.5c-2.5,1.8-5.3,1.7-7.7-0.3c-2.7-2.3-4.6-5.3-6-8.6
	c-1.4-3.3-2.3-6.8-3.1-10.3c-1.3-6.1-3-12.1-3.9-18.3C44.1,321.3,43.7,318.3,43.9,315z"/>
<path class="st1" d="M128,342.4c-0.4-0.2-0.7,0.1-0.9,0.3c-3.4,2.8-7.2,4.7-11.4,5.8c-1.4,0.4-2.2,1.1-2.6,2.5
	c-1.3,4.3-3,8.4-6,11.9c-2.5,2.9-5.5,4.9-9.3,5.4c-4.6,0.6-8.3-1.3-11.3-4.6c-3.8-4-5.1-9-5-14.4c0.1-5.7,1.3-11.3,3.7-16.5
	c1.8-3.9,4.3-7.3,8.1-9.5c1.4-0.8,2.9-1.4,4.5-1.3c2.1,0.1,3.2,1.4,2.9,3.5c-0.2,1.3-0.8,2.4-1.6,3.4c-1.3,1.5-2.6,3-4,4.5
	c-4.5,5.1-6.4,11.1-5.6,17.9c0.2,2.1,1,4,2.2,5.8c2.4,3.3,6.2,3.9,9.4,1.4c1.6-1.3,3.2-2.6,4.6-4.2c0.8-0.9,1.5-1.9,2-3
	c1.3-2.7,1.2-3-0.9-5.1c-4.3-4.4-6.2-9.6-5.8-15.7c0.3-4.3,4.1-6.3,7.5-3.6c4,3.1,6.8,7.2,6.8,12.6c0,2.6,0,2.6,2.4,1.8
	c3.8-1.2,7.1-3.2,10-6c1.1-1.1,1.6-2.3,1.6-3.8c-0.1-3.8,0.3-7.7,0.5-11.5c0.1-1.6,0.1-1.6-1.5-1.6c-2.6-0.1-5.1-0.3-7.6-0.6
	c-1-0.1-1.9-0.3-2.8-0.7c-1.7-0.8-2-2.5-0.8-4c0.8-1,1.8-1.5,3-1.9c2.7-1,5.4-1.3,8.2-1.1c2.7,0.1,3-0.1,4-2.7
	c1.2-3.2,2.4-6.4,3.6-9.7c0.3-0.8,0.6-1.6,1.1-2.4c0.6-0.9,1.5-1.6,2.6-1.4c1.3,0.2,2.2,0.8,2.7,2.1c0.5,1.1,0.5,2.3,0.5,3.5
	c-0.1,2.3-0.3,4.6-0.5,6.9c-0.1,2.3-0.1,2.3,2.1,2.2c4-0.1,8-0.4,12-0.5c1.8-0.1,3.7-0.1,5.5,0.5c0.5,0.2,1.1,0.3,1.6,0.6
	c1.7,1,1.8,2.4,0.3,3.6c-1.5,1.1-3.3,1.6-5.1,2c-4,0.9-8,1.6-12,2.5c-1.5,0.3-3,0.7-4.5,0.9c-1.5,0.2-2.3,1-2.6,2.4
	c-2,9.6-3.6,19.2-2.5,29c0.3,2.7,0.8,5.4,1.6,8c1.2,4,4.1,5.2,7.8,3.2c1.1-0.6,2.1-1.5,3-2.4c0.8-0.8,1.6-1.6,2.6-2.1
	c2.3-1.2,4.4,0,4.5,2.6c0,0.5-0.1,1.1-0.2,1.7c-1.3,5.9-7.4,11-13.5,11.1c-4.9,0-8.6-2-11-6.3c-1.7-3-2.3-6.3-2.9-9.6
	c-0.6-3.6-0.6-7.2-0.7-10.8C128.2,344.1,128.4,343.2,128,342.4z M111.5,340.2c0.1-3.9-1.6-6.8-4.1-9.2c-0.3-0.3-0.8-0.6-1.2-0.7
	c-0.9-0.3-1.5,0.2-1.2,1.1c0.5,2,1.1,4,1.6,6c0.4,1.4,1.1,2.7,2,3.8c0.6,0.7,1.3,1.7,2.3,1.3C112,342,111.3,340.8,111.5,340.2z"/>
<path class="st3" d="M298.3,125.2c-10.8,0.9-21.7,1.8-32.5,2.4c-13.7,0.7-27.3,0.8-41,0.7c-8-0.1-16-0.1-24-0.5
	c-0.8,0-1.6-0.1-2.4-0.1c-1.9-5.7-3-11.6-3.9-17.5c-1.1-7-1.2-14-0.8-21c0.7-11.8,3.1-23.4,8.1-34.3c3.2-7,7.8-12.8,14.3-17
	c5.1-3.2,10.6-5.1,16.5-6.2c4.6-0.9,9.3-1.4,14-1.6c2.9-0.1,5.9-0.4,8.8-0.3c6.5,0.2,13.1,0.4,19.6,1.3c2.1,0.3,4.1,0.4,6.2,0.6
	c0.1,0.4,0.2,0.8,0.2,1.2c0.4,4.9,1.4,9.6,3.5,14.1c0.8,1.7,1.7,3.4,2.2,5.3c-0.1,2.4,0.5,4.8,0.7,7.1c0.8,9,0.7,18-0.9,27
	c-2.1,11.8-6.1,23-12.1,33.4c-0.7,1.3-1.4,2.7-2,4.1c-0.6,1.4-0.4,1.8,1.1,1.8c1.7,0,3.3-0.2,5-0.2c3.8,0,7.5-0.3,11.2-0.7
	c4.3-0.4,7.6-2,9.5-6.2c1.5-3.2,3.3-6.4,4.7-9.7c4.2-10,6.8-20.3,6.9-31.1c0-3-0.1-5.9-0.5-8.8c-0.7-5-1.6-9.9-4.4-14.3
	c0.7-0.5,1.4-0.8,2.3-0.9c0.1,0.6,0.2,1.3,0.5,1.8c4,8.7,4.6,17.9,4,27.1c-0.6,8.5-2.9,16.6-6,24.5c-1.5,3.9-3.2,7.7-4.8,11.5
	C301.2,121.1,300,123.3,298.3,125.2z M242.1,126.3c2.9-0.1,5.7-0.1,8.6-0.4c1.1-0.1,1.5-0.5,1.5-1.6c0.4-8.8,0.9-17.5,1.3-26.3
	c0.2-4.8,0.3-9.6,0.7-14.4c0.2-3.2,0.3-6.4,0.5-9.6c0.4-7.5,0.9-15,1.3-22.5c0.3-5.3,0.6-10.7,0.9-16c0.1-1.6-0.1-1.8-1.6-2
	c-3.4-0.4-6.7,0.1-9.8,1.7c-6.3,3.3-11,8.2-14.3,14.4c-3.5,6.6-5,13.8-5.4,21.2c-0.3,7.5,0.1,15,0.8,22.5c0.8,8,1.8,16,3,24
	c0.3,2.2,0.9,4.4,2.1,6.3c1.1,1.8,2.7,2.7,4.8,2.7C238.4,126.3,240.2,126.3,242.1,126.3z M229.9,126c0-0.2,0.1-0.4,0-0.5
	c-2.4-3.2-3.4-7-4.1-10.9c-0.9-5.3-1.3-10.6-2-15.9c-0.9-7.9-1.6-15.7-1.3-23.6c0.2-4.8,0.6-9.6,1.9-14.2c1.5-5.3,3.2-10.4,6.3-15
	c3.4-5.2,8.3-8.8,13.7-11.8c0.7-0.4,1.7-0.6,2.1-1.7c-1.6-0.5-3.1-0.4-4.5-0.2c-4.3,0.7-8.6,1.6-12.9,2.7
	c-9.9,2.6-17.6,8.1-22.7,17.1C200,63.6,196.8,76,196.1,89c-0.5,8,0.1,16,1.4,23.9c0.6,3.6,1.4,7.2,2.4,10.7c0.5,1.9,0.9,2.2,2.6,2.2
	c8.7,0.2,17.4,0.3,26.1,0.4C229,126.3,229.5,126.5,229.9,126z M285.8,63.2c0-1.9,0-3.8,0-5.8c-0.1-4.4-1.1-8.5-3.5-12.3
	c-1.5-2.4-2.8-4.9-3.4-7.6c-0.6-2.6-2.4-3.8-4.8-3.8c-3.9-0.1-7.8-0.2-11.7,0.3c-2.4,0.3-2.4,0.4-2.5,2.9c-0.2,4.8-0.4,9.6-0.6,14.4
	c-0.4,7.7-0.9,15.5-1.3,23.2c-0.2,4.8-0.3,9.6-0.7,14.4c-0.2,3-0.3,6.1-0.4,9.1c-0.5,8.7-0.9,17.4-1.4,26.1
	c-0.1,2.5,0.2,2.8,2.7,2.8c3.4,0,6.7-0.7,10-0.9c0.7-0.1,1.1-0.5,1.5-1.1c2.2-2.7,3.8-5.8,5-9c3.2-8.1,6-16.3,8.2-24.8
	C285.1,81.9,285.7,72.5,285.8,63.2z"/>
<path class="st1" d="M189.3,349.9c0.2-3.2,0.4-6.4,0.5-9.6c0.1-2.1-0.5-2.4-2.4-1.5c-1.1,0.5-2.1,1.1-3.2,1.7c-2,0.9-4,0.8-4.9-0.3
	c-1.2-1.5-0.7-3.2,0-4.7c0.6-1.4,1.7-2.3,2.8-3.2c2.5-1.8,5.3-3,8.1-4.1c2-0.8,2.8-2.1,3-4.1c0.4-4,1.4-7.9,2.6-11.7
	c0.8-2.6,2.3-4.7,5-5.8c2.9-1.1,4.4-0.2,4.3,2.9c0,4-0.5,8-1.5,11.9c-0.7,3-0.7,3,2.3,2.4c7.4-1.7,14.8-3.4,22.2-5.1
	c2.2-0.5,4.4-0.8,6.7-0.4c1.4,0.3,2.6,0.8,3.6,1.7c1.9,1.8,1.6,4.3-0.7,5.6c-0.9,0.5-1.9,0.8-3,0.9c-10.4,1.6-20.6,4.3-30.6,7.7
	c-1.9,0.7-2.8,1.7-2.9,3.8c-0.3,5.3-0.9,10.7-1.4,16c-0.3,3.1-0.2,3.1,2.9,2.2c4.3-1.2,8.6-2.5,12.9-3.6c5.9-1.5,11.8-2.7,18-2.7
	c1.2,0,2.4,0,3.5,0.5c3,1.3,3.5,4.4,1.1,6.6c-1.3,1.2-2.9,1.9-4.7,2.3c-11.6,3-23.2,5.9-34.8,8.9c-4.9,1.3-8.2-0.8-9.4-5.8
	c-0.5-2.4-0.4-4.8-0.2-7.2C189.1,353.6,189.2,351.7,189.3,349.9C189.3,349.9,189.3,349.9,189.3,349.9z"/>
<path class="st1" d="M319,346c-3.5,3.9-7.7,6.6-11.1,10c-3.9,3.9-8.7,6.2-14.1,7.3c-5.1,1-9.3-0.9-12-5.5c-1.5-2.6-2.2-5.5-2.2-8.5
	c-0.1-5.8,0.7-11.5,2.4-17c1.7-5.4,5-9.6,10-12.3c2.8-1.5,5.8-2.2,9-1.2c5.1,1.6,8,7.1,5.1,12.3c-3.5,6.3-8.3,11.3-14.3,15.3
	c-1,0.7-2,1.3-2.8,2.2c-2.1,2.3-1.5,5,1.3,6.2c2.1,0.9,4.2,1,6.3,0.3c1.1-0.4,2.3-0.8,3.3-1.5c4.7-3.2,9.7-6.2,14.3-9.7
	c1.7-1.3,3.2-2.7,4.6-4.2c0.8-0.9,1.2-1.8,1.1-3c-0.2-4.4,0.5-8.8,1.5-13.1c0.3-1.4,0.7-2.8,1.4-4.1c0.5-0.9,1.2-1.7,2.2-2.1
	c2-0.8,3.7,0,4.3,2c0.3,1,0.2,2.1,0.1,3.1c-0.1,0.5-0.3,0.9-0.3,1.4c-0.1,1.5,0.5,1.9,1.8,1.3c1.6-0.8,3.1-1.6,4.8-2.1
	c7.5-2.3,11.4,4.1,10.4,9.3c-0.3,1.7-0.8,3.3-1.7,4.7c-0.5,0.8-1.2,1.6-2.3,1.3c-1-0.2-1.4-1.1-1.5-2c-0.2-1-0.3-2.1-0.5-3.1
	c-0.5-2.9-2.5-4-5.3-3c-1.6,0.6-2.9,1.7-3.9,3.1c-2.6,3.2-3.8,7-4.2,11c-0.3,3-0.4,6.1-0.2,9.1c0.1,2.1,0.2,4.2-0.5,6.2
	c-0.7,2-1.7,2.9-3.4,2.8c-1.6,0-2.9-1-3.4-2.9c-0.9-3.5-0.6-7.1-0.4-10.7C318.7,348,318.8,347.2,319,346z M286.4,341.4
	c0.1,0.5-0.2,1.4,0.5,1.8c0.8,0.4,1.5,0,2.2-0.4c1.3-0.9,2.4-1.8,3.7-2.6c4.9-3,7.3-7.9,10-12.6c1.1-2-0.2-3.8-2.5-4
	c-1.1-0.1-2,0.3-3,0.7C291,326.8,286.5,333.8,286.4,341.4z"/>
<path class="st1" d="M699.8,329.2c1.2,2,0.8,3.7,0,5.3c-1.1,2.1-2.9,3.6-4.8,4.9c-3,2.1-6.4,3.2-9.8,4.3c-0.5,0.2-1.1,0.4-1.6,0.5
	c-0.7,0.1-0.9,0.5-0.7,1.2c1.3,4,0,7.3-2.5,10.5c-2.9,3.6-5.9,6.9-10.6,8.2c-4.3,1.2-8.7,1.4-13.1,0.7c-1.7-0.3-3.4-1-4.6-2.4
	c-1.4-1.6-1.8-3.5-1.2-5.6c0.9-3.5,3.1-6.1,6-8.1c3.7-2.6,7.6-5.1,12-6.4c0.4-0.1,0.8-0.3,0.9-0.7c-0.8-0.9-2-1.2-3.1-1.6
	c-5.8-2.1-10.2-5.9-13.6-10.9c-2.6-3.9-2.5-7.9,0.3-11.6c4.3-5.7,10-9.1,17.1-9.9c5-0.6,7.9,3.4,5.8,8c-1.3,2.9-3.3,5.3-5.8,7.2
	c-1.3,1-2.7,1.4-4.2,0.8c-1.9-0.8-2.5-3-1.1-4.5c0.9-1.1,2-2,3-3.1c0.3-0.3,0.7-0.8,0.3-1.3c-0.4-0.5-0.9-0.7-1.5-0.3
	c-3.3,2.2-6.3,4.6-7.9,8.4c-0.8,1.9-0.1,3.4,1.2,4.8c1.5,1.6,3.5,2.3,5.5,2.7c0.7,0.2,1.4,0.3,2.1,0.4c5.3,0.4,9,3.3,11.9,7.5
	c1.6,2.3,1.6,2.3,4.3,1.6c3.9-0.9,7.6-2.5,10.9-4.8C697.1,333.5,699.1,332.1,699.8,329.2z M672.6,351.4c-0.2-0.9-0.3-1.9-0.5-2.8
	c-0.1-1-0.6-1.1-1.5-0.7c-3.8,1.6-7.4,3.8-10.7,6.2c-0.3,0.2-0.5,0.4-0.7,0.6c-0.9,1-0.8,1.8,0.2,2.7c1.2,1.1,2.7,1.4,4.2,1.1
	c2.2-0.6,4.3-1.3,6.2-2.5C671.4,354.9,672.4,353.4,672.6,351.4z"/>
<path class="st1" d="M599,343.5c-1.4,1-2.8,2-4.2,2.9c-1.7,1.2-3.6,1.9-5.7,2.2c-3.8,0.6-4.9,0-6.9-3.4c-1.6,3-4.3,4.5-7.3,5.6
	c-4.7,1.8-8.5,0.2-10.8-4.3c-1.3-2.6-1.8-5.5-2.2-8.3c-0.6-4.4-0.6-8.8-0.4-13.2c0-0.4,0.1-0.8,0.1-1.2c0.2-1.3,0.7-2.4,2.1-2.6
	c1.4-0.2,2.5,0.4,3.2,1.6c0.7,1.1,1,2.3,1.2,3.6c0.6,4.4,1.6,8.6,2.8,12.9c0.2,0.9,0.5,1.7,1,2.4c1.3,1.9,3.2,1.9,4.5,0.1
	c0.5-0.8,0.9-1.7,1.3-2.6c1.6-4.3,2.4-8.8,2.3-13.4c0-1.3-0.1-2.6,0.1-3.8c0.2-1.6,1.1-2.5,2.5-2.8c2.9-0.5,4.2,0.7,3.8,3.7
	c-0.9,5.4-1.7,10.9-1.7,16.4c0,4.9,3.3,7,7.8,4.8c2.3-1.1,3.8-3.2,5.4-5c0.5-0.5,0.3-1.2,0.3-1.8c0-2.2,0-4.5,0.2-6.7
	c0.5-4.3,2.2-8.2,4-12c1.4-3,3.8-5.1,6.7-6.7c4.4-2.5,8.3-0.7,9.5,4.2c0.4,1.8,0.4,3.7,0.1,5.5c-0.1,0.8-0.2,1.7-1.1,2
	c-1,0.4-1.7-0.3-2.3-0.9c-0.4-0.3-0.7-0.7-1-1c-1.9-1.7-3.8-1.6-5.4,0.4c-1.8,2.2-2.8,4.8-3.4,7.6c-0.7,2.8-0.6,5.7,0,8.6
	c0.5,2.4,1.4,3.2,3.9,3.5c2.1,0.3,4.1,0.3,5.6-1.6c0.9-1.1,2.1-1.2,3-0.5c1,0.7,1.4,1.7,1.2,2.9c-0.2,1.2-0.8,2.2-1.6,3.1
	c-3,3.3-6.9,3.7-11,3.1c-3-0.5-5.5-1.7-6.8-4.6C599.6,343.9,599.4,343.6,599,343.5z"/>
<path class="st1" d="M546.4,301.9c3.9-0.1,5.8,1.6,5.7,5.2c-0.1,4.4-1.9,8-5.2,10.9c-0.4,0.3-0.8,0.6-1.2,0.8
	c-1.9,0.9-3.6-0.2-3.7-2.3c0-1.5,0.6-2.8,1.6-3.9c0.8-0.9,1.4-2,1.7-3.1c0.3-0.9-0.2-1.4-1.1-1.4c-0.5,0-1,0.1-1.4,0.3
	c-4.3,1.5-7.4,4.3-9,8.6c-1.5,4.2,0,7.7,4.1,9.4c1.9,0.8,4,1.1,6,1.6c1.9,0.4,3.8,0.7,5.6,1.4c5,2,7.1,6,5.8,11.1
	c-0.9,3.7-2.9,6.9-5.4,9.8c-4.5,5-9.9,8.8-16.5,10.5c-4.9,1.2-9.3-0.7-11.2-4.6c-2.1-4.2-1-10,2.5-13c1.5-1.2,3.2-1.8,5-2.1
	c0.7-0.1,1.4,0.1,2.1,0.3c1.1,0.4,2,1.1,2.1,2.4c0.1,1.4-0.9,1.9-2.1,2.3c-0.9,0.3-1.9,0.5-2.7,0.9c-1.6,0.8-2.2,2.7-1.6,4.1
	c0.5,1.3,1.8,1.8,3.6,1.5c5.1-0.9,9.5-3.2,13.5-6.4c0.5-0.5,1-1,1.5-1.5c2-2.3,2-4.3,0.2-6.7c-1.1-1.4-2.5-2.5-4-3.5
	c-1.9-1.2-3.8-2.3-5.8-3.4c-2-1.2-4-2.4-5.7-4c-5.3-4.9-5.7-11.7-0.9-17c3.6-3.9,8.1-6.1,13.2-7.4
	C544.2,302.2,545.5,301.8,546.4,301.9z"/>
<path class="st2" d="M308.6,53.7c-0.8,0.1-1.6,0.4-2.3,0.9c-3.4,0.8-6.5,2.1-9,4.6c-0.6,0.6-1.2,1-1.9,1.4c-1.6,0.9-3.2,0.5-4.3-1.1
	c-0.8-1.1-1.4-2.3-1.9-3.6c-0.5-1.3-0.9-2.7-2-3.7c-0.5-1.9-1.4-3.6-2.2-5.3c-2.1-4.5-3.1-9.2-3.5-14.1c0-0.4-0.1-0.8-0.2-1.2
	c-0.2-4-0.4-8-0.7-12c-0.1-1.8-0.1-3.6,1.7-4.6c2-1,3.8-0.2,5.3,1.1c3.2,2.9,5.4,6.5,6.9,10.5c0.3,0.9,0.6,1.8,1,2.8
	c0.7-0.4,0.9-1.1,1.2-1.6c2.6-4.7,5.8-9,9.4-13c1.4-1.6,3-2.9,5-3.7c2.5-1.1,4.2-0.3,5,2.3c0.6,2,0.9,4,0.9,6.1c0,1.5,0,3,0,4.8
	c3.5-2.3,7.4-3,11.3-3.7c4.4-0.8,5.4,0.2,4.5,4.7c-1.9,8.9-6.8,16.1-13.8,21.9C315.9,50.1,312.3,52,308.6,53.7z M296.2,56.6
	c0.6-0.2,1.5-0.4,2.4-0.8c5.8-2.6,11.6-5.4,17.2-8.5c4.6-2.5,8.1-6.1,10.6-10.7c2.2-3.9,3-8.2,4.3-12.4c0.3-1-0.1-1.3-1.1-1.3
	c-2.4,0-4.7,0.7-6.9,1.7c-4.6,2.1-8.1,5.3-11,9.3c-3.5,4.8-7,9.5-11.4,13.5c-1.3,1.2-2.6,2.3-3.9,3.5c-1,1-1.9,2.2-2.1,3.7
	C294.1,56,294.6,56.6,296.2,56.6z M294.5,50.2c1-0.2,1.6-0.9,2.3-1.4c3.8-2.9,6.8-6.7,9.8-10.5c3.3-4.1,6.4-8.4,8.1-13.5
	c1.1-3.4,1.1-6.8-0.3-10c-1-2.2-1.7-2.4-3.6-0.9c-0.6,0.5-1.2,1-1.8,1.6C299.9,24,295,34.4,294,46.8
	C293.9,47.9,293.9,49.1,294.5,50.2z M282,21.2c-0.2,1.6,0.3,3.6,0.4,5.7c0.3,5,1,10,2.5,14.8c1.1,3.7,2.6,7.2,5,10.3
	c0.3,0.4,0.7,1,1.3,0.9c0.8-0.2,0.8-0.9,0.8-1.5c0.2-2.5,0.4-4.9,0.7-7.4c0.4-4.5,0.9-9,0.3-13.6c-0.6-4.6-2-8.9-5.6-12.1
	c-0.9-0.9-1.9-1.7-3.2-2c-1.3-0.4-2,0-2.2,1.4C281.9,18.6,282,19.6,282,21.2z"/>
<path class="st1" d="M247.8,327.3c0-0.9,0-1.8,0-2.6c0.1-1.7,1.1-2.9,2.6-3.4c1.5-0.5,3-0.3,4.2,0.9c1.2,1.1,1.7,2.5,2,4
	c0.8,4.2,1.5,8.3,2.3,12.5c0.2,0.9,0.1,2.3,1,2.5c1.2,0.3,1.5-1.2,1.9-2c2.7-5.2,5.4-10.5,8.1-15.7c1.2-2.4,3.5-2.9,5.7-1.5
	c1.1,0.8,1.4,1.9,0.7,3.4c-3.8,7.2-7.2,14.6-11.3,21.6c-2.1,3.5-4.2,7-6.2,10.5c-0.4,0.6-0.6,1.4-1.5,1.3c-1,0-1.3-0.9-1.5-1.6
	c-2.5-8.5-5.7-16.8-7.5-25.5C247.8,330.2,247.8,328.8,247.8,327.3z"/>
<path class="st1" d="M630.7,334.5c-0.1,1.7,0.3,4.2,1.2,6.5c0.3,0.8,0.7,1.6,1.1,2.4c1.6,2.4,4,2.9,6.4,1.3c0.9-0.6,1.6-1.3,2.4-2
	c0.7-0.6,1.3-1.2,2-1.7c1-0.7,2-1,3.1-0.3c1,0.7,1.3,1.8,1.1,3c-0.1,0.6-0.3,1.2-0.6,1.8c-2.4,5.4-8.7,7.9-14,5.4
	c-3.2-1.4-5.7-3.6-7-6.9c-2.2-5.3-3.2-10.9-2.7-16.6c0.3-4,1.9-7.6,4.3-10.7c2.1-2.7,4.9-4.6,8.4-5c4.4-0.5,8.2,2.5,8.5,6.5
	c0,0.6,0,1.1-0.1,1.7c-0.4,1.6-1.5,2-2.9,1.3c-4.2-2.1-7-1.2-9.2,2.9C631.1,327.2,630.7,330.4,630.7,334.5z"/>
<path class="st1" d="M195.3,302.6c-0.7,0-1.1,0-1.4,0c-1.7-0.1-2.7-0.7-3-1.9c-0.4-1.5,0.5-2.5,1.6-3.2c2.7-1.8,5.8-2.5,8.9-3.2
	c6.3-1.5,12.8-1.6,19.3-1.7c7.3-0.2,14.7-0.1,21.9-1.5c1.4-0.3,2.7-0.1,3.9,0.8c0.8,0.6,1.3,1.4,1.2,2.5c-0.1,1.1-0.9,1.6-1.9,2
	c-1.6,0.6-3.3,0.6-5,0.8c-8.8,1.1-17.6,2-26.4,3.1c-5.8,0.7-11.6,1-17.3,2.3C196.5,302.5,195.7,302.5,195.3,302.6z"/>
<path class="st1" d="M462,102.5c-1.7-1.3-3.5-1.5-5.4-0.9c-1.4,0.4-2.6,1.4-4,2.1c-0.2-0.9,0.3-1.5,0.6-2.2c2.4-6.5,3.3-13.2,2.2-20
	c-0.2-1.5-0.8-2.8-1.8-3.9c-1.5-1.6-3.2-1.4-4.2,0.6c-0.3,0.6-0.5,1.3-0.8,2c-0.9,3-1.4,6-1.5,9.2c-0.3-0.1-0.6-0.1-0.8-0.2
	c-3.5-1.6-6.4-0.1-7.2,3.6c-0.2,1-0.1,1.9,0,2.9c0.4,2.1,1.4,3.9,2.4,5.7c1.1,1.8,2.3,3.7,2.8,5.8c0.4,1.6,0.8,3.3-0.1,5.1
	c-2.4-4.1-7.9-3.8-10.1,0.6c-0.5,1-0.9,2.1-1.1,3.1c-0.6,2.3-0.6,4.8-0.9,7.1c-0.2,1.9-0.6,3.7-1.7,5.5c-1.1-1.1-2.2-1.9-3.8-2
	c-3-0.1-5.5,1.6-6.5,4.7c-0.7,2.2-0.7,4.4-0.4,6.6c0.5,2.9,0.4,5.9,0.3,8.9c-0.1,1.5-0.4,3-1.1,4.4c-0.8,1.5-1.9,2.5-3.8,2.5
	c0-1.5,0.7-2.6,1.4-3.7c0.8-1.4,1.8-2.6,2.1-4.3c-0.1-0.3-0.1-0.6,0.3-0.8c0.3-0.8,0.3-1.7,0.1-2.6c0.1-0.9-0.2-1.6-0.9-2.1
	c-1.7-1.3-3.3-1.3-5.2,0.1c-0.6,0.5-1.1,1-1.7,1.6c-0.9-1.6-0.5-2.7,0.7-3.7c0.7-0.6,1.6-1.1,2.3-1.8c1.6-1.4,2.4-3.2,2.4-5.3
	c0-1.8-0.5-3.4-2.7-4.6c0.6-0.4,1-0.5,1.3-0.8c4.6-4.1,9.1-8.3,13.7-12.4c1.1-1,2-2,2.5-3.5c0.5-1.7-0.2-2.9-2-3
	c-1.4-0.1-2.7,0-4,0.3c-0.7,0.2-1.5,0.7-2.3,0.3c-0.1-1.1,0.8-1.5,1.3-2.1c2.7-3.1,5-6.4,6.4-10.3c1.3-3.7,1.7-7.5,0.4-11.3
	c-0.4-1.1-0.9-2.1-1.7-2.8c-1.6-1.5-3.1-1.4-4.5,0.4c-0.8,1-1.4,2.2-2.1,3.2c-0.6,0.8-0.9,1.8-2.1,2.4c0.6-4.8,1-9.4,1.1-14.1
	c0.1-2.9,0.2-5.7-0.4-8.6c0.2-2.6,0.1-5.1-1.8-7.1c-2.2-1.6-4.1-1.2-5.4,1.4c-4,8.2-3.8,16,2.1,23.3c0.4,0.1,0.5,0.5,0.9,1
	c-0.8,0-1.3-0.2-1.6-0.7c-0.4-0.1-0.7-0.3-1.1-0.4c-3.2-0.8-4.7,0.4-4.8,3.7c-0.1,2.6,0.6,4.9,2,7c1,1.5,2.1,3,3.1,4.6
	c1,1.5,2,3.1,2.5,4.9c0.4,1.6,0.7,3.2-0.3,5c-0.7-1.1-1.2-2.1-1.9-2.9c-1.3-1.7-3.2-2.3-4.8-1.6c-1.4,0.6-2,2.1-1.6,4.3
	c0.5,2.7,1,5.3,1.5,8c0.4,2.5,1.2,5,1.2,8.2c-2-3.1-4.2-4.5-7.3-2.8c-0.2,0.4-0.7,0.8-1,0.5c-0.2-0.2,0-0.8,0.4-1
	c0.9-2.5,1.4-5.1,1-7.7c-0.3-2.6-2.1-3.5-4.5-2.4c-0.7,0.3-1.1,1-2,1.1c0.7-4.3,1.4-8.5,2-12.7c0.2-1.5,0.2-3-1.2-3.9
	c-1.5-1-3-0.7-4.5,0.2c-0.7,0.5-1.4,1-2.2,1.5c-0.4-0.7,0-1.3,0.2-1.9c1.2-3.9,2.5-7.7,3.7-11.6c0.5-1.7,0.9-3.4,0.5-5.2
	c-0.4-1.5-1.1-2-2.6-1.6c-0.8,0.2-1.5,0.6-2.5,1c0.1-0.7,0.1-1.1,0.1-1.6c1.3-3.2,2.5-6.5,3.3-9.9c-0.3,0-0.5,0-0.8,0
	c-0.4,3.2-2,6-2.9,9c-0.8,1.7-1.6,3.3-2.4,5c-0.2,0.4-0.5,0.9-1,0.8c-0.6-0.1-0.6-0.7-0.6-1.2c-0.1-3.3,0.4-6.5,1.4-9.7
	c0.5-1.7,1.1-3.3,2-4.8c0.3-0.5,0.6-0.9,1-1.3c0.4-0.5,1-0.9,1.7-0.6c0.6,0.2,0.8,0.8,0.8,1.4c0,0.5,0,1,0,1.4c0.3,0,0.5,0,0.8,0
	c0.1-0.4,0.2-0.8,0.3-1.1c0.3-1,0.2-2-0.7-2.6c-0.9-0.7-1.8-0.4-2.7,0.1c-1.2,0.6-2.1,1.6-2.8,2.8c-3.4,5.9-5,12.2-4.3,19.1
	c0.1,0.8,0.1,1.5,0.1,2.4c-2.7-0.4-4.8,0.4-6,2.8c-1.1,2.3-0.1,4.3,1.2,6.2c1.2,1.7,2.7,3.1,4.3,4.5c1.4,1.2,2.8,2.4,4.1,3.7
	c0.9,0.9,1.7,1.9,1.8,3.2c-3.8,0.1-5.5,4.3-3.2,7.5c1,1.4,2.3,2.5,3.7,3.3c1.3,0.7,2.7,1.4,4,2.1c2.4,1.3,4.2,3.2,5.3,5.7
	c1.6,3.8,2.3,7.8,1.7,11.9c-0.1,0.7,0,1.4-0.5,2c-0.7-0.3-1.2-0.7-1.8-0.9c-2.3-0.8-3.9,0.2-4.3,2.6c-0.2,0.9-0.1,1.8,0.1,2.6
	c0.3,1.5,0.7,2.9,1,4.4c0.7,3.4-0.6,5.5-4,6.6c-1.2,0.4-2.4,0.5-3.5,0.5c-5.1,0.1-10.2,0.2-15.3,0.2c-0.5,0-1.1,0.3-1.5-0.4
	c0.2-0.8,0.8-1.3,1.3-1.9c2.5-3.2,5.1-6.4,7.6-9.6c0.6-0.8,1.2-1.5,1.5-2.4c0.3-0.8,0.4-1.7-0.2-2.5c-0.7-0.7-1.5-0.8-2.4-0.5
	c-0.8,0.3-1.5,0.5-2.2,0.9c-2.7,1.4-5.3,3-7.6,4.9c-0.5,0.7-1.2,1.1-2.1,1.8c0.2-1,0.6-1.6,1.1-2c3.3-5.2,6.5-10.4,9.8-15.6
	c0.6-1,1.3-2,1.4-3.3c0.2-1.6-0.6-2.5-2.2-2.3c-0.6,0-1.3,0.2-1.9,0.4c-4.7,1.5-8.9,3.9-12.4,7.4c-0.5,0.5-0.9,1.2-1.8,1.6
	c-0.7-1.8-0.1-3.2,0.7-4.6c1-1.8,2.5-3.3,4-4.8c2.9-3,5.4-6.3,7.4-10c1.5-2.4,3-4.8,2.8-7.9c-0.7-2.3-1.4-2.8-3.6-2
	c-0.5,0.2-1,0.5-1.5,0.7c-3.7,1.9-7.1,4.3-10.2,7c-0.5,0.5-0.9,1.2-1.7,1.2c-0.5-1.3-0.5-2.6-0.3-4c0.5-2.7,1.7-5,3.4-7.1
	c1.7-2.2,3.9-4,6.1-5.8c2-1.7,4.1-3.4,5.8-5.4c2-2.4,3.2-5.1,2.8-8.4c0.3-1.4-0.3-2.4-1.4-3.2c-1.7-1.8-3.8-1.9-6-1.4
	c-1.6,0.4-3.1,1.2-4.5,2.1c-0.8,0.5-1.6,1-2.3,1.5c-2-1.8-3.9-3.3-6.3-4.1c-4.4-1.4-8.2,0.8-9.3,5.3c-0.7,3.1,0,6,1.4,8.8
	c1.2,2.3,2.7,4.4,4.4,6.3c3.2,3.8,4.4,8.1,3.8,12.9c0,0.4,0.2,1-0.6,1.1c-0.4-0.6-0.9-1.2-1.4-1.9c-1.2-1.5-2.5-3-4.2-3.8
	c-3-1.5-6.1-0.2-7.2,2.9c-0.6,1.6-0.5,3.1-0.2,4.7c0.5,3,2.2,5.3,4.2,7.4c2.3,2.4,4.8,4.7,7.1,7.1c1.7,1.7,3.3,3.5,4.3,5.7
	c0.4,0.2,0.7,0.8,0.5,0.9c-0.6,0.4-0.9-0.2-1.3-0.6c-0.4-0.1-0.7-0.3-1.1-0.4c-3.6-1-7,0.3-8.6,3.5c-1.6,3.1-0.7,6.8,2.2,9
	c1.9,1.5,4.1,2.4,6.6,2.4c0.9,0,1.9,0,2.8,0c-1.7,1.2-2,2.9-1.7,4.7c0.4,1.9,2,2.9,3.6,4.3c-2.7,0.4-5,0.8-7.2,1
	c-4.5,0.2-5.7,2.5-5.9,6c0,0.2,0,0.3,0,0.5c-0.5,14.7-1,29.4-1.5,44.1c-0.4,11.5-0.8,23-1.3,34.5c-0.2,5-0.3,9.9-0.6,14.9
	c-0.2,3.1,1,4.4,4.1,4.7c1.3,0.1,2.6,0.1,3.8,0c18.9-0.4,37.9-0.8,56.8-1.2c9.4-0.2,18.7-0.4,28.1-0.6c2.7-0.1,3.5-0.8,3.6-3.3
	c0.9-16,1.9-32.1,2.8-48.1c0.9-14.7,1.7-29.4,2.6-44.1c0.1-1.8,0.3-3.7,0-5.5c-0.3-2-1.4-3.2-3.3-3.7c-1.3-0.4-2.7-0.5-4-0.5
	c-3.8,0-7.7,0-11.5-0.1c-1.7,0-3.5,0.1-5.6-0.3c1.4-0.9,2.5-1.7,3.5-2.5c2.4-1.8,4.2-3.9,4.6-7c0.3-2-0.2-2.7-2-3.6
	c-0.4-0.2-0.9-0.2-1-0.8c5.6-2,11.2-4.3,16.3-7.4l0,0c0.9-0.5,1.8-0.9,2.6-1.4c1.1-0.7,2.3-1.3,2.6-2.8c0.5-2.2,0.1-3.2-1.8-4.4
	c-1.1-0.6-2.4-1.1-3.7-1.7c0.9-0.7,1.6-1.2,2.3-1.7c4.8-3.5,9.4-7.2,13.7-11.3c1.2-1.1,2-2.4,2.5-4C463.2,104,462.9,103.2,462,102.5
	z M382.5,94.2c-0.6-0.8-1.1-1.7-1.5-2.7c-0.6-1.8-0.3-3.1,0.9-3.8c1.2-0.6,2.7-0.2,3.8,1.1c0.7,0.7,0.9,1.7,1.2,2.6
	c0.6,2.4,0.8,4.8,1.5,7.3C386,97.6,384.1,96.2,382.5,94.2z M390.6,92.2c-0.6,0.1-0.8-0.5-1-0.9c-0.5-0.9-0.7-1.9-0.6-3
	c-0.1-1,0.3-2,0.6-3c0.9-2.5,2.3-4.7,3.7-6.9c0.3-0.4,0.6-0.8,0.9-1.1c0.4-0.4,0.8-0.8,1.5-0.5c0.5,0.2,0.5,0.8,0.5,1.2
	c0.1,0.9-0.1,1.7-0.4,2.6c-1.6,3.5-3.3,7.1-4.5,10.8C391.2,91.7,391,92.1,390.6,92.2z M395,116.6c-1.8-1.1-3.6-2.3-5.4-3.5
	c-0.7-0.4-1.2-1-1.6-1.8c-0.7-1.6,0.1-2.9,1.8-2.9c1.2,0,2,0.6,2.6,1.5c1.6,2.3,3.3,4.5,4.6,7.1C396,117.4,395.5,116.9,395,116.6z
	 M396.9,109.9c-0.4,0.9-1,1-1.6,0.2c-0.5-0.7-0.8-1.5-1-2.4c-0.3-1.7-0.8-3.4-1.7-5c-0.6-1-0.6-1.9,0.1-2.9c1.1-1.5,2.2-3,3.4-4.3
	c0.5-0.5,1-1.2,1.8-0.8c0.7,0.3,1,1,1.1,1.8c0.1,0.5,0.1,1,0.1,1.4c0,0.9-0.2,1.7-0.4,2.6c-0.7,2.8-1.5,5.5-1.6,8.5
	C397.1,109.2,397.1,109.6,396.9,109.9z M364.8,81.6c2.2-3.9,6-5.4,10.3-4.3c1,0.7,1.8,1.5,2,2.8c-0.3,2.6-1.4,4.8-3.2,6.8
	c-3.7,4.2-7.9,7.9-12,11.7c-0.2,0.2-0.5,0.4-0.9,0.6c-0.5-0.9-0.4-1.8-0.3-2.6c0.4-3.9,1-7.8,2.3-11.5
	C363.6,84,364.2,82.8,364.8,81.6z M358.4,126.2c-0.6,0.3-1.2-0.4-1.7-0.8c-3.6-2.7-6.4-6-8.8-9.7c-1.6-2.5-2.3-5.2-2.3-8.2
	c0-2.7,1.4-3.7,4-3c1.1,0.3,2.2,0.7,2.9,1.5c2.5,2.8,4.9,5.6,5.3,9.6c0.3,2.9,0.6,5.7,0.9,8.5C358.7,124.9,359.3,125.8,358.4,126.2z
	 M358.6,98.3c-1.2-0.5-1.8-1.5-2.4-2.4c-2.4-4-4.6-8-6-12.5c-1.4-4.4,1.2-7.5,5.8-7c1.5,0.2,2.9,0.7,4.1,1.8
	c1.5,1.3,2.1,2.8,1.3,4.7c-1.6,3.8-1.6,7.9-2.1,12C359.2,96,359.3,97.1,358.6,98.3z M450.6,79.4c1.2-1.6,2-1.5,2.9,0.2
	c0.7,1.3,1.1,2.7,1.1,4.1c-0.1,4.6,0,9.3-2.3,13.5c-0.2,0.4-0.2,1.2-1.1,1c-1.4-4.4-1.9-8.9-2.1-13.4
	C449.1,82.9,449.4,81,450.6,79.4z M440.6,94.3c0-0.2-0.1-0.3-0.1-0.5c-0.3-1.9,0.2-3,1.3-3.5c1.3-0.6,2.5-0.1,3.7,1.5
	c2.2,2.9,4,6,3.5,9.8c0.1,1.8-0.1,3.4-0.7,5c-0.5,1.3-1.1,1.4-1.8,0.4C444,103.1,441.3,99.2,440.6,94.3z M436,113.3
	c0.5-1.9,2.3-2.9,4-2.4c1.7,0.5,2.8,2.2,2.5,4.1c-0.2,1.3-0.7,2.5-1.4,3.5c-1.8,2.4-3.6,4.7-5.4,7.1c-0.2,0.3-0.4,0.7-0.9,0.6
	c-0.6-0.1-0.6-0.6-0.7-1.1c-0.1-0.5-0.1-1-0.1-1.8C434.7,120.2,435.2,116.7,436,113.3z M412.8,144.1c0.5-2.3,2.8-3.6,5-3.3
	c0.5,0.5,0.5,1.2,0.7,1.8l0,0c-0.6,2.7-3.7,8.2-5.9,10.1C412.4,149.7,412.1,146.8,412.8,144.1z M421.7,98.4c0.6-2,0.5-4.1,0.8-6.2
	c0.6-3.4,1.8-6.6,3.9-9.4c1.3-1.8,2.3-1.7,3.3,0.3c0.8,1.6,1.1,3.3,1,5.2c0.1,1.1,0,2.3-0.4,3.4c-1.3,4.2-3.4,8.1-6.4,11.4
	c-0.4,0.5-0.8,1.1-1.6,0.9c-0.7-0.2-0.7-1-0.8-1.6C421.4,101.1,421.3,99.7,421.7,98.4z M423.1,108.1c-0.3,0.5-0.9,0.4-1.4,0.8
	c0.1-0.7,0.4-1,0.8-1.2c0.2-0.1,0.3-0.4,0.6-0.2C423.4,107.8,423.1,107.9,423.1,108.1z M414.7,62.5c0.4-1.5,1-2.9,2-4
	c0.7-0.8,1.5-1.2,2.5-0.8c1.7,1.9,1.8,4.3,2,6.7h0c-0.2,3.6,0,7.2-0.5,10.7c-0.3,2.1-0.6,4.2-1.2,6.3c-1.1,0.2-1.4-0.6-1.8-1.3
	C414.5,74.6,413.1,68.8,414.7,62.5z M413,88.4c-0.3-0.6-0.5-1.3-0.7-2c-0.3-1.3,0.3-2.6,1.3-3.1c1-0.5,2.4-0.2,3.3,0.7
	c0.7,0.6,1.1,1.4,1.3,2.3c0.7,3.7,1.5,7.3,1.8,11.1c0.1,1,0,2-0.5,3c-1-0.2-1.2-1-1.5-1.6C416.3,95.3,414.6,91.8,413,88.4z
	 M427.7,108.2c0.3-0.1,0.6-0.1,0.7-0.1c1.9-0.1,2.4,0.7,2,2.2c-0.3,0.9-0.8,1.6-1.5,2.1c-3.2,2.5-6.5,5-9.7,7.5
	c-0.1,0-0.1,0.1-0.2,0.1c-0.6,0.2-1.3,1-1.9,0.4c-0.6-0.5,0-1.2,0.1-1.8C418,112.5,423,110.5,427.7,108.2z M411.2,107.9
	c-0.2-1.2-0.3-2.4,0.2-3.5c0.5-1.3,1.4-1.5,2.4-0.5c1.9,2,3.4,4.3,3.2,7.2c-0.2,3.5-1,6.9-2.4,10.5c-1.9-2.4-1.9-4.9-2.3-7.3
	C411.9,112.1,411.6,110,411.2,107.9z M412.4,130.8c1.2-1,2.1-1,3-0.2c1,0.9,0.7,1.8,0.2,2.8c-0.6,1.1-1.4,2.2-2.4,2.9
	c-2.1,1.5-4.3,2.9-6.5,4.4c-0.1-0.1-0.2-0.3-0.3-0.4c1.3-2.6,2.4-5.3,4.3-7.6C411.1,132,411.7,131.4,412.4,130.8z M404.3,125.2
	c0-0.5,0-1,0.2-1.4c0.7-2.5,2.5-3,4.4-1.3c2.7,2.4,2.9,3.5,1.2,6.6c-1.1,2-2.2,4.1-3.9,5.7c-0.4,0.4-0.7,0.9-1.3,0.9
	c-0.5-0.4-0.4-1-0.5-1.5C404.3,131.2,404.2,128.2,404.3,125.2z M401.8,118.3c-0.2,0.4-0.4,0.9-1,0.9c-0.4,0-0.6-0.4-0.9-0.8
	c-1.4-2.3-0.5-6.1,1.8-7.4c0.3-0.2,0.7-0.5,1.1-0.2c0.5,0.3,0.5,0.7,0.4,1.2C402.9,114.1,402.6,116.3,401.8,118.3z M403.4,144.3
	c1-1.2,2.3-1.9,3.6-2.7c1.2-0.6,1.7-0.2,2.1,0.9c-0.3,0.5-1,0.3-1.4,0.6c1.4,1,3.1,1.7,3.2,3.7c0,0.1,0,0.2,0.1,0.2
	c0,1.1,0.5,2.3-0.5,3.1c-0.6,0.5-2.1-0.4-3-1.6c-0.7-1.1-1.4-2.2-0.8-3.6c0.1-0.3,0-0.6-0.3-0.8c-1.4,2.6-1.3,3.8,0.7,5.7
	c0.8,0.8,1.7,1.4,2.6,2.1c0.4,0.4,0.6,0.9,0.4,1.5c-0.2,0.5-0.7,0.6-1.2,0.6c-3.9,0-7.8,0-11.7,0c-0.3-1.2,0.3-1.9,0.8-2.6
	C399.6,149,401.4,146.6,403.4,144.3z M396.8,140.5c0.1-1,0.2-2,1.2-2.4c1.3-0.4,1.8,0.6,2.4,1.5c1.8,2.7,1.5,4.2-1.8,7.1
	C397.3,144.7,396.6,142.7,396.8,140.5z M380.4,156.1c9-0.6,18-0.8,27.1-0.4c3,0.1,6.1,0.3,9.1,0.4c0.5,0,1.1-0.1,1.5,0.3
	c0.1,0.8-0.4,0.9-0.8,1.2c-4.8,3.6-9.3,7.6-13.5,11.9c-1.2,1.3-2.3,2.7-3.5,3.9c-1.2,1.3-1.4,1.3-2.8,0.2c-2.9-2.2-5.7-4.4-8.5-6.6
	c-3.2-2.6-6.5-5.2-9.7-7.8c-0.7-0.5-1.4-1.1-1.9-2.3C378.6,156.5,379.5,156.1,380.4,156.1z M370.9,144.6c2.2-2,4.3-4.1,6.9-5.4
	c0.5-0.3,1-0.5,1.5-0.7c0.5-0.2,0.9-0.2,1.3,0.2c0.4,0.4,0.3,0.9,0.1,1.3c-0.7,1.5-1.4,3-2.5,4.3c-1.3,1.6-2.7,3.1-4.1,4.6
	c-0.7,0.7-1.4,1.6-2.6,1.2c-0.8-0.3-1.7-2.1-1.6-3.4C369.9,146.1,370.2,145.2,370.9,144.6z M365.2,131.8c2.3-3.5,5.4-6.1,9.4-7.4
	c0.9-0.3,1.8-0.7,2.7-1c1.4-0.5,2,0.1,1.7,1.5c-0.2,0.9-0.7,1.8-1.3,2.5c-3.3,4.7-7.1,9.1-10.2,13.9c-0.8,1.3-1.3,1.2-1.9-0.2
	c-0.9-1.8-1.5-3.7-1.6-5.8C364,134,364.5,132.8,365.2,131.8z M362.3,112.2c1-1,2.1-2,3.2-2.9c2.2-1.6,4.3-3.3,6.6-4.7
	c1.1-0.7,2.3-1.9,3.9-0.9c0.5,1.9-0.1,3.5-1.1,5.1c-0.4,0.7-0.9,1.3-1.3,1.9l0,0c-2.8,3.4-5.5,6.8-8.5,10.1
	c-1.1,1.2-1.9,2.6-2.8,3.9c-0.3,0.4-0.7,0.7-1.2,0.5c-0.5-0.2-0.4-0.6-0.4-1c-0.2-2.1-0.4-4.1-0.6-6.2
	C359.9,115.7,360.7,113.8,362.3,112.2z M360.3,144.5c-1.1-0.1-2.8-0.2-4.5-0.5c-2.2-0.4-4-1.5-5.3-3.4c-1.3-1.8-1.2-3.7-0.1-5.4
	c1.2-1.7,3.3-2.7,5.2-2c1.7,0.6,3.2,1.4,4.8,2.2c0.8,0.4,1.2,1.3,1.5,2.1c0.6,1.6,1.2,3.1,1.7,4.7c0.6,1.7,0.3,2.1-1.4,2.3
	C361.8,144.5,361.4,144.5,360.3,144.5z M361.2,152c-1.7-2-1.2-3.6,1.3-4.2c3.5-0.9,5.3,0.1,6.7,3.5c0.6,1.4,0.2,2-1.4,2.3
	c-0.6,0.1-1.3,0.1-1.9,0.1C364.1,153.9,362.5,153.5,361.2,152z M374.3,258.7c-6.2-0.3-12.3,0.6-18.4,0.6c-1.3,0-2.5,0.5-3.8,0.4
	c-1.9-0.1-2.7-0.7-3.4-2.5c-0.5-1.5-0.7-3-0.4-4.5c0.4-1.8,0.3-3.6,0.4-5.5c0.2-4.8,0.5-9.7,1.1-15c9.2,9.5,18.9,18,29.5,25.8
	C377.5,258.7,375.9,258.8,374.3,258.7z M442.3,233.1c-0.8,4.4-0.1,8.9-0.5,13.4c-0.2,3.2-0.3,6.5-0.9,9.7c-0.2,1.1-0.7,1.5-1.7,1.6
	c-7.7,0.4-15.5,0.6-23.2,0.3c-0.1,0-0.1-0.1-0.4-0.1c-0.1-1,0.4-1.5,0.9-2c2-2,4-4.1,6.2-6c2.7-2.4,5.3-5,7.9-7.7
	c3.3-3.4,6.8-6.5,10.2-9.8c0.3-0.3,0.5-0.6,1-0.5C442.3,232.3,442.3,232.7,442.3,233.1z M444.2,202.3c-0.8,5.4-0.7,11-1.3,16.4
	c-0.3,3-0.1,6.1-0.5,9.1c-0.2,1.4-0.5,2.4-1.6,3.3c-3.9,3.2-7.6,6.6-11.3,9.9c-3.7,3.4-7.3,6.9-10.9,10.5c-1.6,1.7-3.2,3.4-4.7,5.1
	c-0.7,0.8-1.6,1.2-2.7,1.1c-5-0.3-10.1,0.2-15.1,0.6c-4.1,0.3-8.1-0.4-12.2-0.2c-0.8,0-1.5-0.2-2.2-0.7c-2.2-1.5-4.3-3.1-6.2-4.8
	c-3.7-3.4-7.6-6.6-11.4-9.8c-2.8-2.4-5.6-4.8-8.4-7.2c-1.4-1.2-2.8-2.4-4.1-3.7c-1.3-1.3-2-2.8-2-4.7c0.1-5.2-0.2-10.4,0.1-15.6
	c0.2-3.3,0.3-6.5,0.4-9.8c0-0.2,0.1-0.5,0.4-0.6c0.8,0,1.1,0.7,1.6,1.2c1.8,1.8,3.6,3.6,5.5,5.4c6.3,6.2,12.9,12,19.5,17.7
	c5.9,5,11.9,9.9,18.1,14.6c0.6,0.4,1.2,0.9,1.7,1.3c1.1,0.7,2.1,0.6,3-0.3c1.7-1.6,3.4-3.1,5.1-4.7c7.6-7.1,14.9-14.5,22.3-21.8
	c4.4-4.3,9.1-8.2,14-12c0.7-0.6,1.4-1.3,2.4-1.4C444.3,201.7,444.3,202.1,444.2,202.3z M445.2,158.2c0.8,0.2,0.8,1.1,1,1.8
	c0.5,2.4,0.7,4.9,0.1,7.3c-0.1,0.5-0.1,1.1-0.1,1.7c0,6.4-0.8,12.7-1.1,19.1c-0.2,2.9-0.3,5.9-0.8,8.8c-0.2,1.3-0.7,2.4-1.8,3.2
	c-6.6,5-12.7,10.3-18.8,15.9c-7.1,6.6-14.1,13.2-20.9,20.1c-0.9,0.9-1.8,1.8-2.6,2.8c-1.2,1.6-2.2,1.8-3.8,0.5c-3.1-2.3-6-4.7-9-7.1
	c-6.2-5-12.2-10.2-18.2-15.5c-2.6-2.2-5.1-4.6-7.5-7c-3-3-6.2-5.7-9.2-8.7c-1.3-1.3-2-2.7-1.8-4.5c1-10.6,0.4-21.2,0.5-31.9
	c0-0.5,0.1-0.9,0.2-1.5c1.1,0.1,1.5,0.8,2,1.3c6.2,7,12.7,13.7,19.3,20.3c1.7,1.7,3.2,3.6,4.9,5.2c6,5.7,11.9,11.6,17.8,17.4
	c0.6,0.6,1.4,1.1,2,1.7c1.5,1.3,1.8,1.3,3.1-0.2c2.5-2.7,4.8-5.5,7.2-8.3c3.2-3.8,6.4-7.5,9.6-11.3c3.6-4.2,7.3-8.5,10.9-12.7
	c2.3-2.7,4.6-5.3,6.9-7.9c2.6-3,5.3-6,7.9-9c0.2-0.2,0.4-0.5,0.7-0.7C444.2,158.8,444.5,158,445.2,158.2z M424,156.1
	c2.5-0.3,5.1-0.6,7.6-0.6c2.1,0.1,4.1,0.1,6.2-0.3c1.7-0.4,3.4,0.3,5.4,0.9c-1.9,3.1-4,5.5-6.3,7.9c-3.1,3.3-6.2,6.5-9,10
	c-3.1,3.9-6,7.8-9.1,11.7c-3,3.8-6,7.5-9.2,11c-3.1,3.4-6,6.9-9.2,10.1c-1.8,1.8-1.8,1.8-3.5,0.1c-14.2-14.2-28.4-28.4-42.6-42.5
	c-0.3-0.3-0.5-0.6-0.8-0.8c-1.1-1-1.8-2.1-1.3-3.6c0.5-1.6,2-1.7,3.3-2c3.1-0.6,6.2-0.4,9.3-0.5c2.3,0,4.6,0.2,6.9-0.4
	c1.6-0.4,2.9,0.4,4.1,1.4c6.3,5.4,12.7,10.7,19,16.1c0.6,0.5,1.3,0.9,1.9,1.5c2.2,2.1,1.9,2,4-0.3c6.3-6.6,13-12.7,20.2-18.3
	C421.9,156.7,422.9,156.2,424,156.1z M430.6,143.2c0.4,0.9-0.4,1.6-1,2.3c-1.4,1.7-5.3,4.4-8.1,5.6c-0.3-4.2,2-7.9,5.2-8.8
	c0.4-0.1,0.8-0.2,1.2-0.2C428.9,142.1,430.1,142.2,430.6,143.2z M422.8,141c-0.1,0.1-0.3,0-0.6,0.1c-0.5-3-0.9-6.1-0.4-9.2
	c0.1-0.4,0.2-0.8,0.3-1.1c0.5-1.4,1.2-2.6,3-2.7c1.5-0.1,3.4,1,4.1,2.4c0.5,0.9,0.5,1.9-0.2,2.7C426.8,135.6,424.8,138.3,422.8,141z
	 M447.4,125.4c1.6,0.5,1.8,1,1.6,2.9c-1.2,1.7-3.2,2.4-4.7,3.7c-3.8,1.5-7.5,3.1-11.3,4.6c-1,0.4-1.9,0.8-3,0.7
	c-1.1,0-1.4-0.6-1-1.5c0.1-0.2,0.2-0.4,0.4-0.6c3.3-3.5,6.6-6.9,11-9.1C442.7,125,445,124.5,447.4,125.4z M461.4,106.1
	c-0.9,1.2-1.9,2.3-3.1,3.3c-5.4,4.8-10.9,9.6-18.1,12.7c3.8-4.7,6.7-9.5,10.6-13.7c2.2-2.4,4.9-4,7.9-5.1c0.9-0.3,1.7-0.4,2.5,0.2
	C462.1,104.1,462.2,105.1,461.4,106.1z"/>
<path class="st3" d="M554.2,80.3c0,0.3,0,0.6-0.1,1c-0.2,1-0.9,1.5-1.8,1.7c-0.9,0.2-1.3-0.4-1.7-1c-1.6-2.3-2.6-4.8-3.2-7.4
	c-0.2-1.1-0.4-2-1.5-2.5c-1-0.5-0.9-1.3-0.3-2c0.3-0.5,0.7-0.9,1.1-1.2c1.5-1.3,1.9-1.2,2.8,0.6c1.4,2.8,2.7,5.6,4.1,8.4
	C554,78.5,554.2,79.3,554.2,80.3z"/>
<path class="st3" d="M522.3,91.3c-0.9,0.1-1.6-0.3-1.9-1.3c-0.3-0.8-0.6-1.7-0.7-2.5c-0.3-2.1-1-4-1.8-5.9c-0.8-1.7-0.2-2.7,2-3.5
	c1.5-0.6,2.3-0.2,2.9,1.5c0.9,2.9,1.4,5.8,2.3,8.7C525.6,90,524.3,91.3,522.3,91.3z"/>
<path class="st3" d="M542.1,120.6c0,1.8-0.6,2.6-2.1,2.8c-1.6,0.2-2.2-0.1-2.7-1.7c-0.8-2.9-1.2-6-2.7-8.7c-0.3-0.6-0.1-1.1,0.3-1.5
	c0.2-0.2,0.5-0.4,0.7-0.6c2.2-1.7,3.7-1.2,4.4,1.5c0.4,1.5,0.7,3.1,1.1,4.7C541.5,118.3,542.1,119.5,542.1,120.6z"/>
<path class="st3" d="M525.8,116.6c-0.1,0.3,0,0.9-0.3,1.3c-0.5,1-1.4,1.9-2.6,1.9c-1.1,0-1.3-1.1-1.6-1.9c-1.3-3.8-1.9-7.7-1.9-11.8
	c0-0.6,0.1-1.1,0.5-1.6c0.7-0.9,1.5-0.8,2.1,0.1c0.1,0.1,0.2,0.3,0.2,0.4c1.1,3.5,2.3,7,3.4,10.5
	C525.8,115.8,525.8,116.2,525.8,116.6z"/>
<path class="st3" d="M531.9,54.3c0.9-0.1,1.5,0.4,1.9,1.2c0.7,1.3,1.3,2.7,1.6,4.2c0.3,1.9,0.7,3.7,2.1,5.2c0.8,0.8,0.5,1.7-0.5,2.1
	c-2.4,1.2-3.6,1.9-4.9-1.6c-1-2.9-1.7-6-2.4-9C529.4,55.3,530.4,54.4,531.9,54.3z"/>
<path class="st3" d="M590,124.2c0.1,1.2-0.4,1.8-1.2,2.1c-0.9,0.4-1.6,0.2-2.1-0.6c-0.6-0.8-1.2-1.7-1.6-2.7c-0.9-2-1.9-4-3.2-5.9
	c-0.6-0.9-0.6-1.6,0.3-2.3c0.7-0.6,1.3-1.2,2-1.7c1-0.7,1.8-0.6,2.1,0.4C587.7,117.2,588.8,120.8,590,124.2
	C590.1,124.4,590.1,124.4,590,124.2z"/>
<path class="st3" d="M598.1,105.4c0.1,0.9-0.2,1.5-0.5,2.1c-0.8,1.4-1.3,1.4-2.2,0.1c-2.2-2.9-3.7-6.1-4.8-9.6
	c-0.5-1.4,0-2.1,1.7-2.7c1.5-0.5,2.5-0.2,2.8,1.2c0.3,1.1,0.8,2.1,1.4,3C597.7,101.3,597.7,103.5,598.1,105.4z"/>
<path class="st3" d="M557.5,137.5c0,1.3-0.3,2.3-1.5,2.7c-1.1,0.4-1.8-0.4-2.3-1.2c-0.4-0.5-0.7-1.1-0.9-1.7
	c-0.9-2.5-1.8-5.1-2.7-7.6c-0.1-0.3-0.2-0.6-0.2-0.9c0-0.2,3.4-2,3.6-2c0.9,0.2,0.9,0.9,1.1,1.6c0.7,2.4,1.4,4.9,2.4,7.2
	C557.3,136.3,557.5,137,557.5,137.5z"/>
<path class="st3" d="M511,54.5c0,1.4-1.3,2.3-2.7,2c-0.8-0.2-1.4-0.7-1.8-1.5c-0.4-0.9-0.8-1.7-1.1-2.6c-0.6-1.7-1.1-3.3-2.1-4.8
	c-0.9-1.2-0.1-2.8,1.6-3.6c1.2-0.6,2-0.2,2.6,1.3c1.1,2.7,2.2,5.5,3.3,8.2C510.8,53.8,510.9,54.2,511,54.5z"/>
<path class="st3" d="M557.4,114c0,1.8-1.3,3.1-2.8,3c-0.8,0-1-0.7-1.2-1.3c-0.4-1.2-0.2-2.5-0.6-3.8c-0.6-1.9-1.2-3.8-1.7-5.8
	c-0.4-1.7-0.2-2,1.6-2.5c1.7-0.5,2-0.4,2.7,1.3c0.2,0.4,0.3,0.9,0.4,1.4C556.5,108.9,556.5,111.7,557.4,114z"/>
<path class="st3" d="M510.8,30.9c0.1-0.5,0.2-1,0.4-1.4c0.6-1.2,1.6-1.3,2.5-0.4c0.8,0.7,1.1,1.7,1.4,2.7c0.6,2.3,1.3,4.6,2.4,6.7
	c0.8,1.4,0.5,2.5-0.5,3.2c-1,0.6-2.3,0.3-3.3-1c-1.1-1.4-1.5-3.2-1.9-4.9C511.4,34.1,511.2,32.4,510.8,30.9z"/>
<path class="st3" d="M605,136.4c0,0.7-0.1,1.3-0.8,1.7c-0.8,0.4-1.4,0.1-2-0.5c-0.1-0.1-0.2-0.2-0.3-0.4c-1.3-2.6-3.2-4.8-4.3-7.4
	c-0.8-1.8-0.4-3.2,1-4.3c1.1-0.8,1.9-0.7,2.3,0.5c0.9,2.8,2.5,5.3,3.6,8.1C604.7,134.9,605,135.6,605,136.4z"/>
<path class="st3" d="M542.6,94.1c0,1.1-0.4,2-1.4,2.3c-1.2,0.4-1.7-0.4-2.2-1.3c-1.1-2-1.5-4.2-2-6.4c-0.3-1.1-0.4-2.2-0.6-3.3
	c-0.1-0.9-0.2-1.8,0.4-2.5c0.8-1,2.2-1,2.4,0.3c0.6,3.6,2.3,6.8,3.3,10.2C542.6,93.7,542.6,93.9,542.6,94.1z"/>
<path class="st3" d="M612.6,95.6c0.1,0.9-0.2,1.4-0.5,1.9c-0.9,1.7-1.7,1.8-2.8,0.2c-1.8-2.7-3.6-5.5-3.4-9c0-0.6,0-1.1,0.2-1.6
	c0.3-0.6,0.6-1.4,1.4-1.5c0.8,0,0.9,0.8,1.2,1.4c1.1,2.2,2.1,4.5,3.2,6.7C612.2,94.3,612.4,95.1,612.6,95.6z"/>
<path class="st3" d="M636.6,106.4c0.1,0.8-0.2,1.4-0.7,2c-0.5,0.6-1.1,1.2-2,0.9c-0.8-0.3-1-1-1-1.8c0-1.4-0.6-2.6-1.2-3.9
	c-0.7-1.7-0.9-3.5-0.8-5.4c0.1-1.2,0.7-1.9,1.8-2.3c0.8-0.2,1.4-0.1,1.6,0.9c0.6,3.1,1.4,6,2.3,9
	C636.6,106.1,636.6,106.3,636.6,106.4z"/>
<path class="st3" d="M607.5,108.9c0.1-0.4,0.3-1.1,0.6-1.7c0.2-0.5,0.6-1,1.2-0.9c0.5,0.1,0.7,0.6,0.9,1c1.1,2.4,2.3,4.8,3.4,7.1
	c0.6,1.4,0.8,2.8,0,4.1c-0.7,1.2-1.4,1.3-2.3,0.3C609.4,116.9,607.5,112,607.5,108.9z"/>
<path class="st3" d="M608.9,52.2c0,1.1-0.1,1.7-0.5,2.3c-0.9,1.2-2.4,1.2-3.1-0.1c-0.3-0.6-0.6-1.2-0.7-1.8
	c-0.2-1.7-0.7-3.2-1.7-4.7c-0.4-0.5-0.5-1.2-0.5-1.8c0-0.3,0-0.7,0.2-0.9c1.1-0.8,2.3-0.3,3.5-0.4c0.8-0.1,1.1,0.5,1.3,1.1
	C608.1,48,608.6,50.3,608.9,52.2z"/>
<path class="st3" d="M642.6,86.4c1.1,2.8,1.5,5.7,2.1,8.4c0.3,1.2-0.7,1.8-1.5,2.5c-0.6,0.5-1,0.3-1.4-0.2c-1.6-2.3-2.2-5-2.2-7.7
	C639.7,87.8,641.2,87.2,642.6,86.4z"/>
<path class="st3" d="M595.4,57.7c0-0.5-0.2-1.5,0.2-2.4c0.2-0.6,0.5-1.2,1.3-1.3c0.6,0,1,0.4,1.2,1c1,2.3,1.8,4.8,2.1,7.3
	c0.1,1.3-0.4,2.1-1.5,2.4c-1,0.3-1.9-0.2-2.5-1.4c-0.6-1.2-0.8-2.6-0.8-3.9C595.4,58.9,595.4,58.5,595.4,57.7z"/>
<path class="st3" d="M291.9,168c0,1.5-0.4,2.9-0.7,4.4c-1.5,8.5-2.7,17-3.7,25.6c-0.6,5.4-0.7,10.8-1.8,16.2
	c-0.7,3.4-2.2,6.3-4.7,8.7c-1.8,1.7-3.7,3.3-5.5,5c-5.3,5-9.5,11-13.8,16.9c-2.6,3.6-5.2,7.1-7.8,10.6c-1.6,2.1-3.6,3-6.3,2.7
	c-1.4-0.2-2.9-0.1-4.3-0.2c-7.5-0.3-15-0.7-22.5-1c-1.1,0-2.1-0.3-3-0.6c-1.7-0.7-2.2-1.9-1.5-3.7c0.6-1.4,1.6-2.6,2.5-3.8
	c6.5-8.2,13.2-16.2,20.1-24.2c15.6-18,32-35.3,48.6-52.5c1.3-1.4,2.7-2.8,4-4.1C291.6,167.9,291.7,168,291.9,168z"/>
<path class="st3" d="M200,215.2c0-3.1,0-6.2,0-9.3c0.1-3.4,0.2-6.7,0.3-10.1c0.2-6.2,0.3-12.5,0.5-18.7c0.1-3.3,1.3-6,3.4-8.5
	c9-10.6,17.9-21.3,26.9-32c0.9-1,1.7-2.1,2.6-3.2c1.8-2.2,4.2-3.3,7.1-3.4c14.3,0,28.6-0.5,42.9-0.9c0.7,0,1.4,0,2.3,0
	c-0.2,1-1,1.4-1.7,1.9c-8.3,7.2-16.6,14.3-24.9,21.5c-15.6,13.6-30.7,27.8-44.3,43.5c-2.7,3.1-5,6.4-7.4,9.8c-2,2.9-4.2,5.7-6.5,8.3
	C200.8,214.7,200.6,215.3,200,215.2z"/>
<path class="st4" d="M48.7,231.1c0-3-0.2-6.1,0.3-9.1c0.2-1.1,0.6-1.7,1.5-2.2c2.1-1.1,3.8-2.7,5.2-4.5c2-2.5,3.1-5.4,3.4-8.6
	c0.3-3.7,0.2-7.4-0.4-11c-0.7-3.7-2.5-6.9-5.5-9.3c-0.4-0.3-0.7-0.7-1.1-0.9c-3.2-1.6-3.8-4.3-3.8-7.5c0-5-0.2-9.9-0.5-14.9
	c-0.2-3.5,0.5-6.6,2.9-9.3c0.5-0.5,0.8-1.2,1.3-1.7c2.5-3,3.7-6.5,3.4-10.4c0-0.6,0-1.1,0-1.7c0-1.2,0.5-1.9,1.7-2.2
	c2.3-0.6,4.7-1.1,7.1-1.3c3.7-0.3,7.5-0.9,11.2-1.4c0.6-0.1,1.3-0.1,1.9-0.2c1.8-0.1,2,0.1,2.3,1.9c0.2,1.5,0.4,3,0.8,4.5
	c1.4,5.3,5,8.4,10.5,9c9,1,18.1-4.4,21.7-12.7c1.4-3.3,1.4-3.2,5.1-2.9c3.6,0.3,7.2,0.5,10.8,0.7c2.6,0.2,2.9,0.6,2.6,3.3
	c-0.8,7,0.2,13.7,4.4,19.6c1.6,2.3,3.7,3.9,6.2,5.2c2.5,1.3,2.6,1.5,2.2,4.3c-0.4,3-0.8,6-1.1,9c-0.1,1.1-0.5,1.8-1.7,1.9
	c-6.4,0.2-10.2,4-12.3,9.4c-3.4,8.6-1.9,16.6,3.9,23.8c0.6,0.8,1.4,1.5,2.1,2.3c1.6,1.7,2.1,3.7,1.5,6c-1.2,4.4-2.2,8.8-3.4,13.2
	c-0.6,2.3-1.2,4.6-1.8,7c-0.8,3-2.7,5-5.4,6.4c-3.9,2-8.1,2.8-12.4,3.3c-1.7,0.2-3.5,0.4-5.3,0.4c-2.2,0-2.6-0.4-2.8-2.6
	c-0.1-1.6-0.4-3.2-0.9-4.7c-1.5-4.6-5.2-6.8-9.9-5.9c-4.3,0.9-7.5,3.2-8.5,7.7c-0.4,1.8-0.8,3.6-1.1,5.4c-0.2,1.2-0.8,1.5-1.9,1.6
	c-8.4,0.6-16.8,0.6-25.1-0.3c-0.8-0.1-1.6-0.1-2.4-0.1c-3.1-0.1-4-0.9-5-3.9c-1.1-3.2-1.5-6.5-1.7-9.9
	C48.6,235.6,48.7,233.4,48.7,231.1z M110.5,198.1c0-5.8-1.7-10.8-4.5-14.4c-3.2-4.1-7.9-5.2-12.6-3c-0.6,0.3-1.3,0.6-1.9,1
	c-6.1,4-9.8,9.7-10.6,16.9c-0.8,6.7,1.3,12.5,6.7,16.8c3.6,2.9,7.4,3.4,11.3,1.1C106.3,212.2,110.1,205.6,110.5,198.1z M80.4,166.5
	c0-5.4-1.2-9.2-4-12.5c-2.2-2.7-5.2-4-8.7-3.7c-3.9,0.4-7.2,2.1-9.8,5c-6.9,7.9-5,19.3,1.1,25.2c4,3.9,9.4,4.1,13.6,0.6
	C77.6,177.1,80.1,171.7,80.4,166.5z M81,229.3c0.1-6.7-3.3-11.4-9.7-13.4c-1.5-0.5-3-0.7-4.5-0.8c-5.5-0.3-10,3-11.3,8.3
	c-1.2,4.7-0.4,9.2,1.5,13.6c3.6,8.2,15,7.8,19.3,3.7C79.5,237.6,80.9,233.8,81,229.3z M105.7,164.2c-0.1,4.1,1.2,8.2,4.6,11.4
	c2.6,2.6,5.8,3.9,9.6,3.2c5.3-1.1,8.5-4.5,9.8-9.4c1.8-6.3,0.2-12.2-3.7-17.4c-2.7-3.5-6.3-4.4-10.5-3
	C109.4,150.9,105.5,156.8,105.7,164.2z M105.1,228.1c0.1,1,0,2.1,0.2,3.1c0.5,4,2,7.5,5.1,10.3c5.3,4.8,11.9,3.7,15.6-2.4
	c2.3-3.9,3.4-8.1,2.9-12.6c-0.5-4.6-2.7-8.1-6.6-10.5c-5.8-3.5-13.1-1.1-15.8,5.1C105.4,223.3,105,225.7,105.1,228.1z"/>
<path class="st3" d="M41.8,41.8c2.1,1.4,3.1,3.4,4.1,5.3c3.1,6.2,5.4,12.6,7,19.3c1.8,8,2.8,16.2,3.9,24.4c1,8.2,2.1,16.3,3.1,24.5
	c0.7,5.5,1.4,10.9,2.1,16.4c0.1,0.4,0.1,0.8,0.1,1.2c0,1.6-0.2,1.9-1.9,2c-4.8,0.2-3.9,0.7-5.7-3.3c-4.2-9.2-8.3-18.3-12.5-27.5
	c-2-4.3-3.5-8.7-3.8-13.5c-0.1-2.2,0.1-4.3,0.2-6.5c0.2-6.1,0.4-12.1,0.6-18.2c0.2-7.2,0.7-14.4,1.9-21.5
	C41,43.5,41.1,42.7,41.8,41.8z"/>
<path class="st3" d="M127.5,129.3c0-1-0.1-1.7,0-2.4c0.6-4.2,0.2-8.3-0.4-12.4c-0.9-6-1.2-11.9,0.3-17.9c0.9-3.6,2.2-7.2,3.5-10.7
	c1.6-4.4,2.9-8.8,3.5-13.4c0.4-3.6,2-6.7,4.2-9.5c2.1-2.6,4.6-4.9,6.5-7.7c0.2-0.3,0.5-0.6,0.9-0.8c1.1-0.7,1.8-0.6,2.2,0.7
	c1.4,4.6,3,9.1,3.7,13.9c1.2,8.7-1.3,16.8-4.4,24.7c-0.4,1.1-1.2,2.1-1.8,3.1c-4.8,8.1-9.4,16.3-10.8,25.9c-0.4,2.7-0.2,5.4-0.1,8.1
	c0,2.8,0.1,2.8-2.8,2.4c-0.9-0.1-1.7-0.3-2.6-0.3c-1.3,0-1.7-0.6-1.6-1.8C127.7,130.5,127.6,129.8,127.5,129.3z"/>
<path class="st3" d="M128.7,33.4c0.7,1.1,0.6,2.4,0.5,3.7c-0.4,6.8,0.5,13.4,2.4,19.9c2.2,7.7,1.5,15.2-0.7,22.7
	c-1.3,4.4-2.8,8.7-4.4,12.9c-1.4,3.5-2.1,7.2-2.4,10.9c0,0.6-0.1,1.3-0.3,1.9c-2.4,7.4-2.4,15.3-3.6,22.9c-0.1,0.9,0,1.8,0.1,2.6
	c0.1,0.7,0.2,1.5-0.8,1.6c-0.9,0.1-2,0.3-2.5-0.9c-0.1-0.2-0.1-0.5-0.2-0.7c-0.7-4.2-1.9-8.3-2.9-12.4c-1.4-6-0.5-11.7,1.6-17.4
	c2.4-6.4,3.6-13.1,3.1-20c-0.2-3.8-1.2-7.4-2.1-11c-0.7-3.1-1.5-6.2-2-9.4c-0.3-1.9-0.2-3.6,0.4-5.4c1.1-3.3,2.5-6.4,4.6-9.2
	c2.8-3.8,5.7-7.5,7.9-11.7C127.7,34,128,33.5,128.7,33.4z"/>
<path class="st3" d="M110.8,55.2c1,1,1.4,2.3,1.6,3.5c1.9,8.2,3.9,16.5,4.1,25c0.1,5.2-0.4,10.4-2.3,15.3
	c-3.7,9.2-4.2,18.8-4.3,28.5c0,1,0.1,1.9,0,2.9c-0.2,1.6-1,2.2-2.6,2.1c-1.9-0.1-3.3-0.9-4.2-2.7c-2.6-5.3-4.5-10.7-5.6-16.5
	c-2.5-12.8-0.8-25.1,3.9-37.1c2.6-6.5,5.3-12.9,8.3-19.1C110.1,56.4,110.5,55.8,110.8,55.2z"/>
<path class="st3" d="M63.7,126.4c-1-4.3-1.4-8.6-2-12.8c-0.6-4.2-1.1-8.4-1.7-12.6c-0.5-3.5-0.3-6.8,0.9-10.1
	c2.3-6.1,4.3-12.4,6.5-18.5c1.9-5.1,4.7-9.8,7.5-14.4c3.6-5.9,7.3-11.7,10.9-17.5c0.2-0.3,0.4-0.7,1-0.7c0.5,0.6,0.4,1.3,0.4,2
	c-0.1,3.3-0.2,6.6-0.2,9.8C87,57,85.7,62,83.9,67c-0.3,0.8-0.7,1.4-1.7,1.2c-0.7-0.1-1.2,0.4-1.4,1c-3.5,10.4-8.8,20-11.4,30.7
	c-0.8,3.3-1.3,6.6-1.1,10c0.3,5.5-1.5,10.5-3.5,15.5C64.7,125.8,64.5,126.2,63.7,126.4z"/>
<path class="st3" d="M103,45.7c0.1,0.2,0.3,0.3,0.3,0.5c0.1,6,0.8,11.9,0.1,17.9c-0.2,1.9-0.8,3.6-1.8,5.2c-3.3,5.7-5,11.9-6.5,18.2
	c-1.5,6.4-0.9,12.9-0.7,19.3c0.1,2.7,0.2,5.4,1,8.1c0.2,0.8,0.1,1.5-0.5,2c-1.8,1.8-2.5,4-3.3,6.3c-0.5,1.4-1,2.7-1.5,4
	c-0.5,1.2-0.9,2.4-0.8,3.7c0.1,1.1-0.2,1.9-1.5,2c-1.5,0.1-2.2-0.2-2.5-1.6c-0.7-4.1-1.3-8.2-1.4-12.4c0-1.6,0.6-3.1,1.2-4.6
	c2.6-6.9,3.9-14,4.2-21.3c0.1-4-0.5-8-1.8-11.8c-1-2.8-0.9-5.6,0.2-8.4c1.2-3.3,3-6.3,4.8-9.4c3.3-5.6,6.8-11,9.4-17
	C102.1,46.1,102.3,45.7,103,45.7z"/>
<path class="st3" d="M82.5,72.5c1.6,2.9,2.7,5.9,3.5,8.9c2.6,9.1,1.8,18-1,26.9c-2.4,7.7-5.6,15.1-7.8,22.9c-0.2,0.5-0.5,1-0.8,1.5
	c-1.1,1.4-2.6,1.3-3.5-0.1c-0.4-0.6-0.6-1.3-0.8-2c-0.9-4.9-1.7-9.9-1.9-15c-0.3-7.5,1.3-14.7,3.7-21.8c2.4-6.9,5.4-13.6,8-20.5
	C82.1,73,82.3,72.8,82.5,72.5z"/>
<path class="st3" d="M49.8,136.9c-1.8,0-3.3-0.6-4.7-1.3c-4.2-2.2-7.7-5.4-10.4-9.4c-3.5-5.2-5.5-11-6.6-17.1
	c-1.1-6.2-1.4-12.5-1.9-18.8c-0.1-0.9-0.3-2,0.9-2.5c1.1-0.5,2.1,0,2.8,0.7c1,1,1.6,2.2,2.6,3.1c3.3,3,4.9,7,6.7,10.9
	c3.8,8.6,7.6,17.2,11.5,25.8c0.6,1.3,1.3,2.6,2,3.8c1.4,2.4,0.7,4.1-2.1,4.6C50.2,136.9,49.9,136.9,49.8,136.9z"/>
<path class="st3" d="M163.4,91c-0.8,5.7-1.7,11.3-4.1,16.5c-1.1,2.3-2.7,4.1-4.5,5.8c-3.3,3.2-6.6,6.5-9.9,9.8
	c-2.8,2.8-5.4,5.7-6.9,9.4c-0.1,0.4-0.3,0.8-0.8,0.8c-0.7,0-0.6-0.6-0.7-1.1c-0.4-6.2,0.2-12.2,3-17.7c2.1-4.2,5-7.8,8.6-10.9
	c4.6-4,9.5-7.6,13.7-12C162.1,91.3,162.4,90.9,163.4,91z"/>
<path class="st0" d="M351.2,163.4c1.1,0.1,1.5,0.8,2,1.3c6.2,7,12.7,13.7,19.3,20.3c1.7,1.7,3.2,3.6,4.9,5.2
	c6,5.7,11.9,11.6,17.8,17.4c0.6,0.6,1.4,1.1,2,1.7c1.5,1.3,1.8,1.3,3.1-0.2c2.5-2.7,4.8-5.5,7.2-8.3c3.2-3.8,6.4-7.5,9.6-11.3
	c3.6-4.2,7.3-8.5,10.9-12.7c2.3-2.7,4.6-5.3,6.9-7.9c2.6-3,5.3-6,7.9-9c0.2-0.2,0.4-0.5,0.7-0.7c0.5-0.4,0.8-1.2,1.5-1
	c0.8,0.2,0.8,1.1,1,1.8c0.5,2.4,0.7,4.9,0.1,7.3c-0.1,0.5-0.1,1.1-0.1,1.7c0,6.4-0.8,12.7-1.1,19.1c-0.2,2.9-0.3,5.9-0.8,8.8
	c-0.2,1.3-0.7,2.4-1.8,3.2c-6.6,5-12.7,10.3-18.8,15.9c-7.1,6.6-14.1,13.2-20.9,20.1c-0.9,0.9-1.8,1.8-2.6,2.8
	c-1.2,1.6-2.2,1.8-3.8,0.5c-3.1-2.3-6-4.7-9-7.1c-6.2-5-12.2-10.2-18.2-15.5c-2.6-2.2-5.1-4.6-7.5-7c-3-3-6.2-5.7-9.2-8.7
	c-1.3-1.3-2-2.7-1.8-4.5c1-10.6,0.4-21.2,0.5-31.9C351,164.5,351.1,164,351.2,163.4z"/>
<path class="st0" d="M350.6,201.4c0.8,0,1.1,0.7,1.6,1.2c1.8,1.8,3.6,3.6,5.5,5.4c6.3,6.2,12.9,12,19.5,17.7
	c5.9,5,11.9,9.9,18.1,14.6c0.6,0.4,1.2,0.9,1.7,1.3c1.1,0.7,2.1,0.6,3-0.3c1.7-1.6,3.4-3.1,5.1-4.7c7.6-7.1,14.9-14.5,22.3-21.8
	c4.4-4.3,9.1-8.2,14-12c0.7-0.6,1.4-1.3,2.4-1.4c0.4,0.3,0.4,0.6,0.3,0.9c-0.8,5.4-0.7,11-1.3,16.4c-0.3,3-0.1,6.1-0.5,9.1
	c-0.2,1.4-0.5,2.4-1.6,3.3c-3.9,3.2-7.6,6.6-11.3,9.9c-3.7,3.4-7.3,6.9-10.9,10.5c-1.6,1.7-3.2,3.4-4.7,5.1
	c-0.7,0.8-1.6,1.2-2.7,1.1c-5-0.3-10.1,0.2-15.1,0.6c-4.1,0.3-8.1-0.4-12.2-0.2c-0.8,0-1.5-0.2-2.2-0.7c-2.2-1.5-4.3-3.1-6.2-4.8
	c-3.7-3.4-7.6-6.6-11.4-9.8c-2.8-2.4-5.6-4.8-8.4-7.2c-1.4-1.2-2.8-2.4-4.1-3.7c-1.3-1.3-2-2.8-2-4.7c0.1-5.2-0.2-10.4,0.1-15.6
	c0.2-3.3,0.3-6.5,0.4-9.8C350.2,201.8,350.2,201.5,350.6,201.4z"/>
<path class="st0" d="M443.1,156.1c-1.9,3.1-4,5.5-6.3,7.9c-3.1,3.3-6.2,6.5-9,10c-3.1,3.9-6,7.8-9.1,11.7c-3,3.8-6,7.5-9.2,11
	c-3.1,3.4-6,6.9-9.2,10.1c-1.8,1.8-1.8,1.8-3.5,0.1c-14.2-14.2-28.4-28.4-42.6-42.5c-0.3-0.3-0.5-0.6-0.8-0.8
	c-1.1-1-1.8-2.1-1.3-3.6c0.5-1.6,2-1.7,3.3-2c3.1-0.6,6.2-0.4,9.3-0.5c2.3,0,4.6,0.2,6.9-0.4c1.6-0.4,2.9,0.4,4.1,1.4
	c6.3,5.4,12.7,10.7,19,16.1c0.6,0.5,1.3,0.9,1.9,1.5c2.2,2.1,1.9,2,4-0.3c6.3-6.6,13-12.7,20.2-18.3c0.9-0.7,1.9-1.2,3-1.3
	c2.5-0.3,5.1-0.6,7.6-0.6c2.1,0.1,4.1,0.1,6.2-0.3C439.5,154.8,441.2,155.4,443.1,156.1z"/>
<path class="st0" d="M379.3,258.1c-1.9,0.7-3.5,0.8-5.1,0.7c-6.2-0.3-12.3,0.6-18.4,0.6c-1.3,0-2.5,0.5-3.8,0.4
	c-1.9-0.1-2.7-0.7-3.4-2.5c-0.5-1.5-0.7-3-0.4-4.5c0.4-1.8,0.3-3.6,0.4-5.5c0.2-4.8,0.5-9.7,1.1-15
	C359,241.8,368.7,250.3,379.3,258.1z"/>
<path class="st0" d="M377.5,156.7c1.1-0.2,2-0.6,2.9-0.6c9-0.6,18-0.8,27.1-0.4c3,0.1,6.1,0.3,9.1,0.4c0.5,0,1.1-0.1,1.5,0.3
	c0.1,0.8-0.4,0.9-0.8,1.2c-4.8,3.6-9.3,7.6-13.5,11.9c-1.2,1.3-2.3,2.7-3.5,3.9c-1.2,1.3-1.4,1.3-2.8,0.2c-2.9-2.2-5.7-4.4-8.5-6.6
	c-3.2-2.6-6.5-5.2-9.7-7.8C378.6,158.5,377.9,158,377.5,156.7z"/>
<path class="st0" d="M415.6,258c-0.1-1,0.4-1.5,0.9-2c2-2,4-4.1,6.2-6c2.7-2.4,5.3-5,7.9-7.7c3.3-3.4,6.8-6.5,10.2-9.8
	c0.3-0.3,0.5-0.6,1-0.5c0.4,0.2,0.4,0.7,0.4,1c-0.8,4.4-0.1,8.9-0.5,13.4c-0.2,3.2-0.3,6.5-0.9,9.7c-0.2,1.1-0.7,1.5-1.7,1.6
	c-7.7,0.4-15.5,0.6-23.2,0.3C415.9,258.2,415.8,258.1,415.6,258z"/>
<path class="st3" d="M375,77.4c1,0.7,1.8,1.5,2,2.8c-0.3,2.6-1.4,4.8-3.2,6.8c-3.7,4.2-7.9,7.9-12,11.7c-0.2,0.2-0.5,0.4-0.9,0.6
	c-0.5-0.9-0.4-1.8-0.3-2.6c0.4-3.9,1-7.8,2.3-11.5c0.5-1.3,1-2.5,1.7-3.7C367,77.7,370.7,76.2,375,77.4z"/>
<path class="st3" d="M358.7,124.2c-0.1,0.7,0.4,1.6-0.4,2c-0.6,0.3-1.2-0.4-1.7-0.8c-3.6-2.7-6.4-6-8.8-9.7
	c-1.6-2.5-2.3-5.2-2.3-8.2c0-2.7,1.4-3.7,4-3c1.1,0.3,2.2,0.7,2.9,1.5c2.5,2.8,4.9,5.6,5.3,9.6C358.1,118.6,358.5,121.4,358.7,124.2
	z"/>
<path class="st3" d="M358.5,98.3c-1.2-0.5-1.8-1.5-2.4-2.4c-2.4-4-4.6-8-6-12.5c-1.4-4.4,1.2-7.5,5.8-7c1.5,0.2,2.9,0.7,4.1,1.8
	c1.5,1.3,2.1,2.8,1.3,4.7c-1.6,3.8-1.6,7.9-2.1,12C359.1,96,359.2,97.1,358.5,98.3z"/>
<path class="st3" d="M376,103.8c0.5,1.9-0.1,3.5-1.1,5.1c-0.4,0.7-0.9,1.3-1.3,1.9c-2.8,3.4-5.5,6.8-8.5,10.1
	c-1.1,1.2-1.9,2.6-2.8,3.9c-0.3,0.4-0.7,0.7-1.2,0.5c-0.5-0.2-0.4-0.6-0.4-1c-0.2-2.1-0.4-4.1-0.6-6.2c-0.2-2.3,0.5-4.2,2.2-5.8
	c1-1,2.1-2,3.2-2.9c2.2-1.6,4.3-3.3,6.6-4.7C373.2,103.9,374.4,102.7,376,103.8z"/>
<path class="st3" d="M419.2,57.7c1.7,1.9,1.8,4.3,2,6.7c-0.2,3.6,0,7.2-0.5,10.7c-0.3,2.1-0.6,4.2-1.2,6.3c-1.1,0.2-1.4-0.6-1.8-1.3
	c-3.2-5.5-4.6-11.3-3.1-17.6c0.4-1.5,1-2.9,2-4C417.3,57.7,418.1,57.3,419.2,57.7z"/>
<path class="st3" d="M430.7,88.3c0.1,1.1,0,2.3-0.4,3.4c-1.3,4.2-3.4,8.1-6.4,11.4c-0.4,0.5-0.8,1.1-1.6,0.9c-0.7-0.2-0.7-1-0.8-1.6
	c-0.2-1.4-0.3-2.7,0.1-4c0.6-2,0.5-4.1,0.8-6.2c0.6-3.4,1.8-6.6,3.9-9.4c1.3-1.8,2.3-1.7,3.3,0.3C430.5,84.7,430.7,86.5,430.7,88.3z
	"/>
<path class="st3" d="M363.8,135.2c0-1.2,0.6-2.4,1.3-3.5c2.3-3.5,5.4-6.1,9.4-7.4c0.9-0.3,1.8-0.7,2.7-1c1.4-0.5,2,0.1,1.7,1.5
	c-0.2,0.9-0.7,1.8-1.3,2.5c-3.3,4.7-7.1,9.1-10.2,13.9c-0.8,1.3-1.3,1.2-1.9-0.2C364.5,139.3,363.9,137.4,363.8,135.2z"/>
<path class="st3" d="M360.2,144.5c-1.1-0.1-2.8-0.2-4.5-0.5c-2.2-0.4-4-1.5-5.3-3.4c-1.3-1.8-1.2-3.7-0.1-5.4c1.2-1.7,3.3-2.7,5.2-2
	c1.7,0.6,3.2,1.4,4.8,2.2c0.8,0.4,1.2,1.3,1.5,2.1c0.6,1.6,1.2,3.1,1.7,4.7c0.6,1.7,0.3,2.1-1.4,2.3
	C361.8,144.5,361.3,144.5,360.2,144.5z"/>
<path class="st3" d="M448.9,128.3c-1.2,1.7-3.2,2.5-4.7,3.7c-3.8,1.5-7.5,3.1-11.3,4.6c-1,0.4-1.9,0.8-3,0.7c-1.1,0-1.4-0.6-1-1.5
	c0.1-0.2,0.2-0.4,0.4-0.6c3.3-3.5,6.6-6.9,11-9.1c2.2-1.1,4.5-1.5,7-0.7C448.9,125.9,449.1,126.3,448.9,128.3z"/>
<path class="st3" d="M440.2,122.1c3.8-4.7,6.7-9.5,10.6-13.7c2.2-2.4,4.9-4,7.9-5.1c0.9-0.3,1.7-0.4,2.5,0.2
	c0.8,0.6,0.9,1.6,0.1,2.6c-0.9,1.2-1.9,2.3-3.1,3.3C452.9,114.3,447.4,119,440.2,122.1z"/>
<path class="st3" d="M448.9,101.6c0.1,1.8-0.1,3.4-0.7,5c-0.5,1.3-1.1,1.4-1.8,0.4c-2.6-3.9-5.3-7.8-5.9-12.7c0-0.2-0.1-0.3-0.1-0.5
	c-0.3-1.9,0.2-3,1.3-3.5c1.3-0.6,2.5-0.1,3.7,1.5C447.6,94.7,449.4,97.8,448.9,101.6z"/>
<path class="st3" d="M451.1,98.3c-1.4-4.4-1.9-8.9-2.1-13.4c-0.1-1.9,0.3-3.8,1.4-5.5c1.2-1.6,2-1.5,2.9,0.2
	c0.7,1.3,1.1,2.7,1.1,4.1c-0.1,4.6,0,9.3-2.3,13.5C452,97.7,452,98.5,451.1,98.3z"/>
<path class="st3" d="M434,123.3c0.6-3.1,1.1-6.6,1.9-10c0.5-1.9,2.3-2.9,4-2.4c1.7,0.5,2.8,2.2,2.5,4.1c-0.2,1.3-0.7,2.5-1.4,3.5
	c-1.8,2.4-3.6,4.7-5.4,7.1c-0.2,0.3-0.4,0.7-0.9,0.6c-0.6-0.1-0.6-0.6-0.7-1.1C434.1,124.6,434.1,124.1,434,123.3z"/>
<path class="st3" d="M428.3,108.1c1.9-0.1,2.4,0.7,2,2.2c-0.3,0.9-0.8,1.6-1.5,2.1c-3.2,2.5-6.5,5-9.7,7.5c-0.1,0-0.1,0.1-0.2,0.1
	c-0.6,0.2-1.3,1-1.9,0.4c-0.6-0.5,0-1.2,0.1-1.8c0.9-6.1,5.9-8.1,10.6-10.4C427.9,108.1,428.2,108.1,428.3,108.1z"/>
<path class="st3" d="M419.4,100.3c-1-0.2-1.2-1-1.5-1.6c-1.7-3.4-3.4-6.9-5-10.3c-0.3-0.6-0.5-1.3-0.7-2c-0.3-1.3,0.3-2.6,1.3-3.1
	c1-0.5,2.4-0.2,3.3,0.7c0.7,0.6,1.1,1.4,1.3,2.3c0.7,3.7,1.5,7.3,1.8,11.1C419.9,98.3,419.9,99.3,419.4,100.3z"/>
<path class="st3" d="M414.4,121.6c-1.9-2.4-1.9-4.9-2.3-7.3c-0.3-2.1-0.5-4.3-1-6.4c-0.2-1.2-0.3-2.4,0.2-3.5
	c0.5-1.3,1.4-1.5,2.4-0.5c1.9,2,3.4,4.3,3.2,7.2C416.6,114.6,415.8,118,414.4,121.6z"/>
<path class="st3" d="M404.8,135.8c-0.5-0.4-0.4-1-0.5-1.5c-0.2-3-0.2-6.1-0.1-9.1c0-0.5,0-1,0.2-1.4c0.7-2.5,2.5-3,4.4-1.3
	c2.7,2.4,2.9,3.5,1.2,6.6c-1.1,2-2.2,4.1-3.9,5.7C405.8,135.3,405.5,135.8,404.8,135.8z"/>
<path class="st3" d="M399.1,97.9c0,0.9-0.2,1.7-0.4,2.6c-0.7,2.8-1.5,5.5-1.6,8.5c0,0.3-0.1,0.6-0.2,0.9c-0.4,0.9-1,1-1.6,0.2
	c-0.5-0.7-0.8-1.5-1-2.4c-0.3-1.7-0.8-3.4-1.7-5c-0.6-1-0.6-1.9,0.1-2.9c1.1-1.5,2.2-3,3.4-4.3c0.5-0.5,1-1.2,1.8-0.8
	c0.7,0.3,1,1,1.1,1.8C399.1,96.9,399,97.4,399.1,97.9z"/>
<path class="st3" d="M422.1,141.1c-0.5-3-0.9-6.1-0.4-9.2c0.1-0.4,0.2-0.8,0.3-1.1c0.5-1.4,1.2-2.6,3-2.7c1.5-0.1,3.4,1,4.1,2.4
	c0.5,0.9,0.5,1.9-0.2,2.7c-2.2,2.5-4.2,5.2-6.2,7.9C422.6,141.1,422.4,141,422.1,141.1z"/>
<path class="st3" d="M369.8,146.9c0-0.8,0.3-1.6,1-2.2c2.2-2,4.3-4.1,6.9-5.4c0.5-0.3,1-0.5,1.5-0.7c0.5-0.2,0.9-0.2,1.3,0.2
	c0.4,0.4,0.3,0.9,0.1,1.3c-0.7,1.5-1.4,3-2.5,4.3c-1.3,1.6-2.7,3.1-4.1,4.6c-0.7,0.7-1.4,1.6-2.6,1.2
	C370.6,150,369.7,148.2,369.8,146.9z"/>
<path class="st3" d="M394.3,64.9c-0.4,3.2-2,6-2.9,9c-0.8,1.7-1.6,3.3-2.4,5c-0.2,0.4-0.5,0.9-1,0.8c-0.6-0.1-0.6-0.7-0.6-1.2
	c-0.1-3.3,0.4-6.5,1.4-9.7c0.5-1.7,1.1-3.3,2-4.8c0.3-0.5,0.6-0.9,1-1.3c0.4-0.5,1-0.9,1.7-0.6c0.6,0.2,0.8,0.8,0.8,1.4
	C394.3,63.9,394.3,64.4,394.3,64.9z"/>
<path class="st3" d="M388.9,88.3c-0.1-1,0.3-2,0.6-3c0.9-2.5,2.3-4.7,3.7-6.9c0.3-0.4,0.6-0.8,0.9-1.1c0.4-0.4,0.8-0.8,1.5-0.5
	c0.5,0.2,0.5,0.8,0.5,1.2c0.1,0.9-0.1,1.7-0.4,2.6c-1.6,3.5-3.3,7.1-4.5,10.8c-0.1,0.4-0.3,0.8-0.7,0.9c-0.6,0.1-0.8-0.5-1-0.9
	C389.1,90.3,388.8,89.3,388.9,88.3z"/>
<path class="st3" d="M388.4,98.7c-2.5-1-4.4-2.5-5.9-4.5c-0.6-0.8-1.1-1.7-1.5-2.7c-0.6-1.8-0.3-3.1,0.9-3.8
	c1.2-0.6,2.7-0.2,3.8,1.1c0.7,0.7,0.9,1.7,1.2,2.6C387.5,93.8,387.7,96.2,388.4,98.7z"/>
<path class="st3" d="M421.4,151.2c-0.3-4.2,2-7.9,5.2-8.8c0.4-0.1,0.8-0.2,1.2-0.2c1.1,0,2.2,0,2.7,1.1c0.4,0.9-0.4,1.6-1,2.3
	C428.1,147.2,424.2,149.9,421.4,151.2z"/>
<path class="st3" d="M365.9,153.8c-1.8,0-3.5-0.3-4.8-1.8c-1.7-2-1.2-3.6,1.3-4.2c3.5-0.9,5.3,0.1,6.7,3.5c0.6,1.4,0.2,2-1.4,2.3
	C367.2,153.8,366.5,153.8,365.9,153.8z"/>
<path class="st3" d="M417.7,140.8c0.5,0.5,0.5,1.2,0.7,1.8c-0.6,2.7-3.7,8.2-5.9,10.1c-0.2-3-0.5-5.8,0.2-8.6
	C413.2,141.9,415.5,140.5,417.7,140.8z"/>
<path class="st3" d="M406.2,140.3c1.3-2.6,2.4-5.3,4.3-7.6c0.5-0.7,1.1-1.3,1.8-1.9c1.2-1,2.1-1,3-0.2c1,0.9,0.7,1.8,0.2,2.8
	c-0.6,1.1-1.4,2.2-2.4,2.9c-2.1,1.5-4.3,2.9-6.5,4.4C406.4,140.6,406.3,140.4,406.2,140.3z"/>
<path class="st3" d="M397,117c-1,0.4-1.5-0.1-2-0.4c-1.8-1.1-3.6-2.3-5.4-3.5c-0.7-0.4-1.2-1-1.6-1.8c-0.7-1.6,0.1-2.9,1.8-2.9
	c1.2,0,2,0.6,2.6,1.5C393.9,112.2,395.6,114.4,397,117z"/>
<path class="st3" d="M398.5,146.7c-1.3-2-2-4-1.8-6.2c0.1-1,0.2-2,1.2-2.4c1.3-0.4,1.8,0.6,2.4,1.5
	C402.2,142.4,401.8,143.9,398.5,146.7z"/>
<path class="st3" d="M406.3,144.3c0.3-0.6,0.7-1,1.3-1.2c1.4,1,3.1,1.7,3.2,3.7c0,0.1,0,0.2,0.1,0.2c0,1.1,0.5,2.3-0.5,3.1
	c-0.6,0.5-2.1-0.4-3-1.6c-0.7-1.1-1.4-2.2-0.8-3.6C406.7,144.8,406.6,144.5,406.3,144.3z"/>
<path class="st3" d="M403.2,112c-0.4,2.1-0.6,4.3-1.4,6.3c-0.2,0.4-0.4,0.9-1,0.9c-0.4,0-0.6-0.4-0.9-0.8c-1.4-2.3-0.5-6.1,1.8-7.4
	c0.3-0.2,0.7-0.5,1.1-0.2C403.3,111,403.3,111.5,403.2,112z"/>
<path class="st4" d="M559.3,233c-0.3-6.4,0.7-13.9,0.4-21.4c-0.3-7.8-0.8-15.6-1.3-23.4c-0.2-2.9-0.2-5.9-0.4-8.8
	c-0.3-4.9-0.8-9.9-0.5-14.8c0.2-3.6,0.6-7.1,1-10.7c0.1-0.9,0-1.7,0-2.6c-0.2-1.8,0-2,1.7-1.9c3.5,0.1,7,0.2,10.5,0.6
	c3,0.4,6,0.3,9.1,0.7c2.8,0.4,5.7,0.4,8.6,0.6c1.7,0.1,1.8,0.2,1.8,2.1c-0.1,1.7-0.7,3.3-1.3,4.8c-1.9,4.5-2.7,9.2-3.5,13.9
	c-1.4,8.8-2.9,17.6-4.6,26.4c-2.2,11.5-4.4,23-6.5,34.5c-1.2,6.1-2.3,12.2-3.5,18.3c-0.4,2.3-0.5,2.3-2.7,2.3c-2.1,0-4.2,0-6.2,0
	c-1.9,0-1.8-0.1-2-1.8C559.3,245.9,559.3,240,559.3,233z"/>
<path class="st4" d="M522.4,148.8c2,0.2,3.8-0.6,4.9,0.4c1,0.9,0.8,2.7,1.1,4.1c1.7,9.3,3.4,18.7,5,28c1.4,8.3,2.8,16.7,4.1,25
	c0.8,4.9,1.4,9.8,2.1,14.7c0.7,4.9,1.4,9.8,2,14.7c0.7,5.5,1.4,11.1,2.1,16.6c0.1,0.8-0.2,1.2-1,1.2c-1.2,0-2.4,0-3.6,0.1
	c-1.5,0.1-3,0-4.5,0.3c-2,0.4-2.1,0.3-2.6-1.7c-2-7.3-4.1-14.6-6-21.9c-3.7-13.8-7.4-27.6-11.1-41.4c-2.3-8.4-3.7-17-6-25.4
	c-0.8-3.1-1.7-6.1-3.6-8.8c-0.3-0.5-0.5-1-0.7-1.5c-1-2.7-0.7-3,2.1-3.3C512.1,149,517.6,149.6,522.4,148.8z"/>
<path class="st4" d="M537.5,148.9c5.4,0,10.9,0.6,16.3,0.5c1.7,0,1.7,0.1,1.7,1.8c0.1,3.9-0.6,7.6-1.2,11.4
	c-0.3,2.1-0.3,4.2-0.1,6.2c0.2,1.6,0.2,3.2,0.3,4.8c0.3,7.5,0.6,15,1.1,22.5c0.4,6.3,0.6,12.6,1,18.9c0.2,3.9,0.1,7.8,0,11.7
	c-0.3,8,0.3,16,0.3,24c0,0.6,0,1.1,0,1.7c0,0.9-0.4,1.3-1.3,1.3c-2.5,0-5-0.1-7.4,0c-0.9,0-1.3-0.3-1.4-1.2
	c-0.2-1.8-0.6-3.6-0.8-5.4c-1.1-10.1-2.6-20.2-4-30.3c-1.1-7.7-2.5-15.4-3.6-23.1c-2-13.6-4.6-27.2-7.2-40.7
	c-0.1-0.5-0.1-1.1-0.2-1.7c-0.3-2-0.3-2,1.8-2.1C534.3,148.9,535.9,148.9,537.5,148.9z"/>
<path class="st4" d="M613.9,154.4c-1.2,2.3-2.6,4.5-3.7,6.7c-2.6,5.3-3.9,11-5.1,16.7c-1,4.5-2.2,9-4.2,13.2
	c-3.2,6.4-5.1,13.3-7.2,20c-2,6.4-4,12.8-6,19.2c-2.2,7.2-4.5,14.5-6.8,21.7c-0.5,1.8-0.6,1.7-2.4,1.6c-1.1,0-2.2,0-3.4,0
	c-1.9,0-2.2-0.3-1.8-2.1c0.5-2.4,1-4.8,1.5-7.3c2.4-12.4,4.9-24.7,7.2-37.1c3.2-17.4,6.2-34.9,10.9-51.9c0.9-3.2,0.8-3.3,4-2.9
	c5.1,0.6,10.2,0.9,15.2,1.4C612.7,153.7,613.2,153.8,613.9,154.4z"/>
<path class="st4" d="M526.7,254.4c-0.4,0-0.8,0-1.2,0c-4.7-0.4-5.6-1.2-6.9-5.7c-4.2-14.6-8.4-29.2-12.6-43.7
	c-2.7-9.3-5.1-18.6-8.2-27.8c-1.9-5.6-4-11.1-5.3-16.9c-0.6-2.5-0.7-5-0.4-7.6c0.1-0.8,0.5-1.1,1.1-1.3c2.2-0.7,4.5-0.9,6.8-1.1
	c0.8-0.1,1.1,0.3,1.2,1.1c0.2,1.9,0.9,3.7,1.8,5.4c2.6,4.5,3.7,9.5,4.8,14.5c4.3,20.1,10.1,39.7,15.1,59.6c1.8,7,3.8,14,5.6,21
	C529.3,254.5,529.3,254.5,526.7,254.4z"/>
<path class="st4" d="M618.5,154.4c2.9,0.3,5.8,1,8.7,1.8c1.5,0.4,1.6,0.7,0.9,2.2c-2.1,4.3-4.3,8.6-6.4,12.9
	c-8.9,17.8-16.7,36.1-23.9,54.6c-2.2,5.6-3.6,11.4-5.7,17c-1,2.7-2.3,5.2-3.6,7.8c-0.4,0.8-0.9,1.5-1.7,1.9
	c-0.8,0.4-1.7,1.1-2.5,0.6c-0.9-0.6-0.1-1.6,0.1-2.4c4.5-14.4,8.9-28.8,13.5-43.2c1.5-4.8,3.4-9.5,5.2-14.2c3.1-8,4.9-16.3,7.3-24.5
	c1.4-5,3.4-9.6,6.6-13.7C617.6,154.3,617.6,154.3,618.5,154.4z"/>
<path class="st0" d="M242.1,126.3c-1.8,0-3.7,0-5.5,0c-2.1,0-3.6-0.9-4.8-2.7c-1.3-1.9-1.8-4.1-2.1-6.3c-1.2-8-2.2-16-3-24
	c-0.7-7.5-1.2-15-0.8-22.5c0.3-7.4,1.9-14.6,5.4-21.2c3.3-6.2,7.9-11.2,14.3-14.4c3.1-1.6,6.4-2.1,9.8-1.7c1.6,0.2,1.7,0.5,1.6,2
	c-0.3,5.3-0.6,10.7-0.9,16c-0.4,7.5-0.9,15-1.3,22.5c-0.2,3.2-0.2,6.4-0.5,9.6c-0.4,4.8-0.4,9.6-0.7,14.4
	c-0.4,8.8-0.9,17.5-1.3,26.3c-0.1,1.1-0.4,1.5-1.5,1.6C247.8,126.2,244.9,126.3,242.1,126.3z"/>
<path class="st0" d="M229.9,126c-0.4,0.4-0.9,0.3-1.3,0.3c-8.7-0.1-17.4-0.3-26.1-0.4c-1.7,0-2-0.4-2.6-2.2c-1-3.5-1.7-7.1-2.4-10.7
	c-1.4-7.9-1.9-15.9-1.4-23.9c0.7-13,3.9-25.4,10.3-36.8c5.1-9,12.8-14.5,22.7-17.1c4.2-1.1,8.5-2,12.9-2.7c1.5-0.2,3-0.3,4.5,0.2
	c-0.5,1.1-1.4,1.3-2.1,1.7c-5.4,3-10.2,6.6-13.7,11.8c-3,4.6-4.8,9.7-6.3,15c-1.3,4.6-1.7,9.4-1.9,14.2c-0.3,7.9,0.4,15.8,1.3,23.6
	c0.6,5.3,1,10.6,2,15.9c0.7,3.9,1.7,7.6,4.1,10.9C229.9,125.7,229.9,125.8,229.9,126z"/>
<path class="st0" d="M285.8,63.2c-0.1,9.4-0.7,18.7-3,27.8c-2.1,8.4-4.9,16.7-8.2,24.8c-1.3,3.2-2.8,6.3-5,9c-0.4,0.5-0.8,1-1.5,1.1
	c-3.3,0.3-6.6,1-10,0.9c-2.5,0-2.8-0.3-2.7-2.8c0.4-8.7,0.9-17.4,1.4-26.1c0.2-3,0.2-6.1,0.4-9.1c0.4-4.8,0.4-9.6,0.7-14.4
	c0.4-7.7,0.9-15.5,1.3-23.2c0.2-4.8,0.4-9.6,0.6-14.4c0.1-2.5,0.1-2.6,2.5-2.9c3.9-0.5,7.8-0.4,11.7-0.3c2.4,0.1,4.2,1.3,4.8,3.8
	c0.6,2.8,2,5.3,3.4,7.6c2.4,3.8,3.4,7.9,3.5,12.3C285.8,59.3,285.8,61.3,285.8,63.2z"/>
<path class="st0" d="M287.1,52.3c1.1,1,1.5,2.4,2,3.7c0.5,1.3,1.1,2.4,1.9,3.6c1.1,1.6,2.7,2,4.3,1.1c0.7-0.4,1.4-0.8,1.9-1.4
	c2.5-2.5,5.6-3.8,9-4.6c2.8,4.4,3.7,9.3,4.4,14.3c0.4,2.9,0.5,5.9,0.5,8.8c-0.1,10.9-2.7,21.2-6.9,31.1c-1.4,3.3-3.2,6.5-4.7,9.7
	c-2,4.1-5.3,5.8-9.5,6.2c-3.7,0.3-7.5,0.7-11.2,0.7c-1.7,0-3.3,0.2-5,0.2c-1.4,0-1.7-0.4-1.1-1.8c0.6-1.4,1.3-2.8,2-4.1
	c5.9-10.4,10-21.6,12.1-33.4c1.6-8.9,1.7-17.9,0.9-27C287.6,57.1,287,54.7,287.1,52.3z"/>
<path class="st4" d="M296.2,56.6c-1.5,0-2.1-0.6-1.9-1.9c0.2-1.5,1.1-2.7,2.1-3.7c1.3-1.2,2.6-2.4,3.9-3.5c4.4-4,7.9-8.8,11.4-13.5
	c2.9-4,6.5-7.2,11-9.3c2.2-1,4.5-1.7,6.9-1.7c0.9,0,1.4,0.3,1.1,1.3c-1.3,4.2-2.1,8.5-4.3,12.4c-2.6,4.6-6,8.3-10.6,10.7
	c-5.6,3-11.3,5.9-17.2,8.5C297.7,56.2,296.8,56.4,296.2,56.6z"/>
<path class="st4" d="M294.5,50.2c-0.5-1.1-0.5-2.3-0.4-3.5c1-12.3,5.8-22.8,14.9-31.3c0.6-0.5,1.2-1.1,1.8-1.6
	c1.8-1.4,2.6-1.3,3.6,0.9c1.5,3.3,1.5,6.6,0.3,10c-1.7,5.1-4.8,9.4-8.1,13.5c-3,3.7-6,7.5-9.8,10.5C296.1,49.4,295.4,50,294.5,50.2z
	"/>
<path class="st4" d="M282,21.2c0-1.5-0.1-2.6,0-3.6c0.2-1.3,0.9-1.7,2.2-1.4c1.3,0.4,2.3,1.2,3.2,2c3.6,3.3,5,7.5,5.6,12.1
	c0.6,4.6,0.1,9.1-0.3,13.6c-0.2,2.5-0.4,4.9-0.7,7.4c-0.1,0.6,0,1.4-0.8,1.5c-0.7,0.1-1-0.4-1.3-0.9c-2.4-3.1-3.9-6.6-5-10.3
	c-1.5-4.8-2.2-9.8-2.5-14.8C282.2,24.8,281.8,22.7,282,21.2z"/>
<path class="st1" d="M110.5,198.1c-0.4,7.5-4.2,14.1-11.6,18.4c-3.9,2.3-7.7,1.9-11.3-1.1c-5.3-4.4-7.4-10.1-6.7-16.8
	c0.8-7.2,4.5-12.9,10.6-16.9c0.6-0.4,1.2-0.7,1.9-1c4.7-2.2,9.4-1.1,12.6,3C108.8,187.3,110.5,192.3,110.5,198.1z"/>
<path class="st1" d="M80.4,166.5c-0.3,5.2-2.8,10.5-7.7,14.7c-4.2,3.6-9.7,3.3-13.6-0.6c-6.1-6-8-17.3-1.1-25.2
	c2.6-2.9,5.9-4.6,9.8-5c3.5-0.4,6.4,1,8.7,3.7C79.1,157.3,80.4,161.1,80.4,166.5z"/>
<path class="st1" d="M81,229.3c0,4.4-1.5,8.2-4.7,11.4c-4.3,4.1-15.7,4.5-19.3-3.7c-1.9-4.4-2.7-8.9-1.5-13.6
	c1.3-5.4,5.8-8.6,11.3-8.3c1.5,0.1,3,0.3,4.5,0.8C77.7,217.9,81.1,222.6,81,229.3z"/>
<path class="st1" d="M105.7,164.2c-0.1-7.4,3.8-13.2,9.8-15.2c4.2-1.4,7.8-0.5,10.5,3c4,5.1,5.5,11,3.7,17.4
	c-1.4,4.9-4.6,8.3-9.8,9.4c-3.8,0.8-6.9-0.6-9.6-3.2C106.9,172.4,105.5,168.3,105.7,164.2z"/>
<path class="st1" d="M105.1,228.1c0-2.4,0.4-4.8,1.3-7c2.7-6.2,10-8.6,15.8-5.1c3.9,2.4,6.2,5.9,6.6,10.5c0.5,4.5-0.6,8.7-2.9,12.6
	c-3.7,6.1-10.3,7.1-15.6,2.4c-3.1-2.7-4.5-6.3-5.1-10.3C105.1,230.2,105.1,229.1,105.1,228.1z"/>
<path class="st1" d="M408,143c-1.1,0.2-1.9,1.1-2.1,2.1c-0.1,0.6,0.8,0.9,1,0.3c0.1-0.7,0.6-1.3,1.4-1.4
	C408.9,143.9,408.6,142.9,408,143z"/>
</svg>
